<svg width="35" height="40" viewBox="0 0 35 40" fill="none" xmlns="http://www.w3.org/2000/svg">
<rect x="0.5" y="0.5" width="34" height="39" rx="9.5" fill="#B0D6E3" stroke="#0084C8"/>
<path d="M25.5366 18.9223C25.5091 19.5673 25.0681 20.1016 24.5169 20.1816L24.3641 20.1918L10.5314 20.0786C9.91193 20.0739 9.43446 19.4974 9.46461 18.7914C9.47958 18.4407 9.61685 18.1209 9.82757 17.892C10.005 17.6991 10.2334 17.5694 10.4836 17.5332L10.636 17.523L24.4687 17.6362C25.0882 17.641 25.5657 18.2174 25.5366 18.9223Z" fill="white"/>
<path d="M17.4612 9.67234C18.0259 9.69614 18.4986 10.1937 18.5751 10.8226L18.586 10.9972L18.6516 26.8062C18.6548 27.5141 18.1562 28.0666 17.538 28.0406C17.2311 28.0276 16.9496 27.8746 16.7468 27.6365C16.576 27.436 16.4597 27.1765 16.4251 26.8911L16.4143 26.717L16.3487 10.908C16.3455 10.2 16.8441 9.64754 17.4612 9.67234Z" fill="white"/>
</svg>
