<svg width="40" height="40" viewBox="0 0 40 40" fill="none" xmlns="http://www.w3.org/2000/svg">
<rect width="40" height="40" rx="10" fill="white"/>
<path fill-rule="evenodd" clip-rule="evenodd" d="M23.2559 12.2428C23.5805 12.5643 23.5827 13.0855 23.2537 13.4071L18.3882 18.1717L18.3023 18.2451C17.9734 18.4897 17.5033 18.4642 17.2048 18.1684C17.043 18.0082 16.9605 17.7975 16.9605 17.5879C16.9605 17.3772 17.043 17.1655 17.207 17.0052L22.0724 12.2395L22.1584 12.1661C22.4873 11.9215 22.9573 11.9471 23.2559 12.2428ZM23.3291 26.6783C23.5802 27.001 23.5535 27.4636 23.256 27.7583C22.9303 28.0798 22.4005 28.0809 22.0725 27.7594L14.7465 20.5828L14.6713 20.4987C14.5573 20.3523 14.5 20.1766 14.5 20.0001C14.5 19.7905 14.5825 19.5798 14.7443 19.4196C15.07 19.097 15.5998 19.0959 15.9277 19.4174L23.2538 26.594L23.3291 26.6783Z" fill="#130F26"/>
</svg>
