<svg width="21" height="21" viewBox="0 0 21 21" fill="none" xmlns="http://www.w3.org/2000/svg">
<path d="M19.4849 19.4795C20.113 18.8448 20.1693 17.8488 19.6393 17.1539L19.4802 16.9723L4.0141 1.51781C3.3218 0.825431 2.20328 0.827794 1.51569 1.52254C1.17425 1.86755 1 2.32126 1 2.7726C1 3.15266 1.12101 3.53108 1.36166 3.84632L1.5204 4.0274L16.9865 19.4819C17.6788 20.1743 18.7973 20.1719 19.4849 19.4795Z" fill="#B7B7B7"/>
<path d="M1.51764 19.4819C2.15212 20.1103 3.14817 20.1669 3.84326 19.6371L4.02486 19.478L19.4843 4.01686C20.1769 3.32478 20.1749 2.20627 19.4803 1.51846C19.1354 1.17691 18.6818 1.00251 18.2304 1.00237C17.8504 1.00224 17.4719 1.12313 17.1566 1.36369L16.9755 1.52237L1.51607 16.9835C0.823472 17.6756 0.82548 18.7941 1.51764 19.4819Z" fill="#B7B7B7"/>
</svg>
