<svg width="40" height="50" viewBox="0 0 88 78" fill="none" xmlns="http://www.w3.org/2000/svg">
<path d="M10 34C10 15.2223 25.2223 0 44 0V0C62.7777 0 78 15.2223 78 34V59H10V34Z" fill="#F74242"/>
<rect y="61" width="88" height="17" rx="5" fill="#414042"/>
<path fill-rule="evenodd" clip-rule="evenodd" d="M44 0C25.2224 0 10 15.2223 10 34V59H44V0Z" fill="#CD3026"/>
<circle cx="57.5" cy="8.5" r="1.5" fill="white"/>
<path d="M68.4319 24.2199C67.9492 24.5295 67.3032 24.4403 66.9208 24.026L66.8234 23.9049C65.0792 18.3262 63.2794 15.8369 58.7603 12.4144C58.399 11.9 58.5347 11.2084 59.063 10.8695C59.3254 10.7012 59.6375 10.6499 59.9272 10.7061C60.1711 10.7534 60.3994 10.8753 60.5729 11.0634L60.67 11.1842C65.5207 14.8497 66.9813 17.4105 68.7331 22.6747C69.0944 23.1891 68.9588 23.8807 68.4319 24.2199Z" fill="white"/>
</svg>
