<svg width="75" height="75" viewBox="0 0 137 137" fill="none" xmlns="http://www.w3.org/2000/svg">
<path fill-rule="evenodd" clip-rule="evenodd" d="M68.5 137C106.332 137 137 106.332 137 68.5C137 30.6685 106.332 0 68.5 0C30.6685 0 0 30.6685 0 68.5C0 106.332 30.6685 137 68.5 137ZM68.5 126C100.256 126 126 100.256 126 68.5C126 36.7436 100.256 11 68.5 11C36.7436 11 11 36.7436 11 68.5C11 100.256 36.7436 126 68.5 126Z" fill="#F74242"/>
<rect x="61" y="21" width="16" height="69" rx="3" fill="#F74242"/>
<rect x="61" y="97" width="16" height="16" rx="3" fill="#F74242"/>
</svg>
