<svg width="24" height="24" viewBox="0 0 24 24" fill="none" xmlns="http://www.w3.org/2000/svg">
<g clip-path="url(#clip0_5_94)">
<path d="M23.7945 11.5028L22.2893 9.99764C22.2886 9.99694 22.2879 9.99619 22.2872 9.99548L12.4976 0.205969C12.3658 0.0741094 12.1869 0 12.0005 0C11.814 0 11.6351 0.0741094 11.5033 0.205969L1.71376 9.99548C1.71306 9.99619 1.71236 9.99689 1.71165 9.99759L0.206449 11.5028C-0.0681449 11.7774 -0.0681449 12.2226 0.206449 12.4972C0.481043 12.7718 0.926215 12.7718 1.20081 12.4972L1.50671 12.1913V23.2969C1.50671 23.6852 1.82153 24 2.20984 24H9.74115H14.2598H21.7911C22.1794 24 22.4942 23.6852 22.4942 23.2969V12.1912L22.8002 12.4972C22.9375 12.6345 23.1174 12.7031 23.2974 12.7031C23.4773 12.7031 23.6573 12.6345 23.7945 12.4972C24.0691 12.2226 24.0691 11.7774 23.7945 11.5028ZM13.5567 22.5938H10.4443V16.4687H13.5567V22.5938ZM21.088 22.5938H14.9629V15.7656C14.9629 15.3772 14.6481 15.0624 14.2598 15.0624H9.74115C9.35284 15.0624 9.03803 15.3772 9.03803 15.7656V22.5938H2.91296V10.785L12.0005 1.69748L21.088 10.785V22.5938Z" fill="#0084C8"/>
</g>
<defs>
<clipPath id="clip0_5_94">
<rect width="24" height="24" fill="white"/>
</clipPath>
</defs>
</svg>
