<svg width="40" height="40" viewBox="0 0 64 64" fill="none" xmlns="http://www.w3.org/2000/svg">
<rect opacity="0.15" width="40" height="40" rx="15" fill="#12C5FE"/>
<rect opacity="0.15" x="29" y="31" width="16" height="16" rx="5" fill="#12C5FE"/>
<path d="M22.206 38.2094C22.2498 38.2525 22.3025 38.2859 22.3605 38.3068V44.7891C22.3605 45.0295 22.5555 45.2245 22.7959 45.2245H42.8231C43.0636 45.2245 43.2585 45.0295 43.2585 44.7891V34.3401C43.2585 34.0997 43.0636 33.9048 42.8231 33.9048H40.6429C41.0842 33.3291 41.517 32.6344 41.517 32.1633C41.5166 31.4392 41.068 30.791 40.3907 30.5353C39.7132 30.2795 38.9483 30.4696 38.4694 31.0125C37.9904 30.4696 37.2255 30.2795 36.548 30.5353C35.8707 30.791 35.4222 31.4392 35.4218 32.1633C35.4218 32.6344 35.8546 33.3291 36.2959 33.9048H27.1261L28.9783 32.0527L32.0568 28.9741L38.2143 22.8165C38.3841 22.6467 38.3841 22.371 38.2143 22.2011L35.1358 19.1224C34.963 18.9592 34.6928 18.9592 34.5202 19.1224L30.4632 23.1792C29.0415 22.0661 27.3469 21.3703 26.5157 22.2011C25.9702 22.7466 26.0852 23.6665 26.5432 24.6361L24.6416 26.5383C23.6716 26.0806 22.7515 25.9653 22.206 26.5113C21.3756 27.341 22.0714 29.0363 23.1847 30.4579L19.1276 34.5142C18.9575 34.6843 18.9575 34.9598 19.1276 35.1299L22.206 38.2094ZM36.2925 32.1633C36.2925 31.6824 36.6824 31.2925 37.1633 31.2925C37.6441 31.2925 38.034 31.6824 38.034 32.1633V32.2808C38.034 32.5213 38.229 32.7162 38.4694 32.7162C38.7098 32.7162 38.9048 32.5213 38.9048 32.2808V32.1633C38.9048 31.6824 39.2946 31.2925 39.7755 31.2925C40.2564 31.2925 40.6463 31.6824 40.6463 32.1633C40.3965 32.818 40.0098 33.4118 39.5117 33.9048H37.4271C36.9292 33.4118 36.5423 32.818 36.2925 32.1633V32.1633ZM34.9864 34.7755H42.3878V44.3537H34.9864V34.7755ZM31.5034 34.7755H34.1156V44.3537H31.5034V34.7755ZM30.6327 34.7755V44.3537H23.2313V37.8231H23.2073L26.2789 34.7519V34.7755H30.6327ZM28.6709 31.1288L26.2079 28.6658L28.6709 26.203L31.1337 28.6658L28.6709 31.1288ZM34.828 20.0459L37.2908 22.5089L31.7494 28.0502L29.2866 25.5891L34.828 20.0459ZM27.1314 22.8165C27.2355 22.7328 27.3682 22.6928 27.5015 22.7047C27.9868 22.7047 28.8342 23.0221 29.8433 23.7989L28.3631 25.2791L28.1139 25.5285C27.0625 24.1637 26.8527 23.0952 27.1314 22.8165ZM26.9843 25.4288C27.1401 25.6735 27.3108 25.9156 27.4945 26.1503L26.1531 27.4917C25.9184 27.308 25.6764 27.1373 25.4322 26.9811L26.9843 25.4288ZM22.8216 27.1269C22.9256 27.0432 23.0578 27.003 23.1909 27.0149C23.6767 27.0149 24.5244 27.3318 25.5336 28.1091L25.2844 28.358L23.8042 29.8384C22.7523 28.4734 22.5429 27.405 22.8216 27.1269ZM25.5923 29.2815L28.0553 31.7445L22.5138 37.2859L20.0531 34.8229L25.5923 29.2815Z" fill="#12C5FE"/>
<path d="M41.9524 24.9172C41.4734 24.3743 40.7086 24.1842 40.0311 24.44C39.3538 24.6957 38.9052 25.3439 38.9048 26.0679C38.9048 27.0135 40.9607 29.5509 41.9524 29.5509C42.9441 29.5509 45 27.0135 45 26.0679C44.9996 25.3439 44.551 24.6957 43.8737 24.44C43.1962 24.1842 42.4314 24.3743 41.9524 24.9172ZM44.1293 26.0679C44.1197 26.6139 42.4456 28.6162 41.9594 28.6802C41.4592 28.6158 39.7851 26.6134 39.7755 26.0679C39.7755 25.5871 40.1654 25.1972 40.6463 25.1972C41.1271 25.1972 41.517 25.5871 41.517 26.0679V26.1855C41.517 26.4259 41.712 26.6209 41.9524 26.6209C42.1928 26.6209 42.3878 26.4259 42.3878 26.1855V26.0679C42.3878 25.5871 42.7777 25.1972 43.2585 25.1972C43.7394 25.1972 44.1293 25.5871 44.1293 26.0679Z" fill="#12C5FE"/>
<path d="M41.9521 20.4082C41.7117 20.4082 41.5167 20.6031 41.5167 20.8436V21.279H41.0814C40.8409 21.279 40.646 21.4739 40.646 21.7143C40.646 21.9548 40.8409 22.1497 41.0814 22.1497H41.5167V22.5851C41.5167 22.8255 41.7117 23.0204 41.9521 23.0204C42.1926 23.0204 42.3875 22.8255 42.3875 22.5851V22.1497H42.8229C43.0633 22.1497 43.2582 21.9548 43.2582 21.7143C43.2582 21.4739 43.0633 21.279 42.8229 21.279H42.3875V20.8436C42.3875 20.6031 42.1926 20.4082 41.9521 20.4082Z" fill="#12C5FE"/>
<path d="M36.2924 27.3741C36.2924 27.6145 36.0974 27.8095 35.857 27.8095C35.6166 27.8095 35.4216 27.6145 35.4216 27.3741C35.4216 27.1337 35.6166 26.9387 35.857 26.9387C36.0974 26.9387 36.2924 27.1337 36.2924 27.3741Z" fill="#12C5FE"/>
<path d="M32.3742 33.0339C32.6147 33.0339 32.8096 32.8389 32.8096 32.5985V32.1631H33.245C33.4854 32.1631 33.6804 31.9682 33.6804 31.7278C33.6804 31.4873 33.4854 31.2924 33.245 31.2924H32.8096V30.857C32.8096 30.6166 32.6147 30.4216 32.3742 30.4216C32.1338 30.4216 31.9389 30.6166 31.9389 30.857V31.2924H31.5035C31.2631 31.2924 31.0681 31.4873 31.0681 31.7278C31.0681 31.9682 31.2631 32.1631 31.5035 32.1631H31.9389V32.5985C31.9389 32.8389 32.1338 33.0339 32.3742 33.0339Z" fill="#12C5FE"/>
<path d="M44.1293 31.7279C44.1293 31.9683 43.9344 32.1632 43.6939 32.1632C43.4535 32.1632 43.2585 31.9683 43.2585 31.7279C43.2585 31.4874 43.4535 31.2925 43.6939 31.2925C43.9344 31.2925 44.1293 31.4874 44.1293 31.7279Z" fill="#12C5FE"/>
</svg>
