<svg width="24" height="24" viewBox="0 0 24 24" fill="none" xmlns="http://www.w3.org/2000/svg">
<path d="M22.8703 4.46878C22.8703 2.0047 20.8657 0 18.4016 0C16.9496 0 15.6575 0.696141 14.8407 1.77202C13.8316 1.21528 12.7206 0.879422 11.5683 0.782672C11.5714 0.756328 11.5734 0.729797 11.5734 0.703125C11.5734 0.517969 11.4984 0.337031 11.3676 0.205781C11.2369 0.075 11.0555 0 10.8703 0C10.6852 0 10.5038 0.075 10.373 0.205781C10.2422 0.337031 10.1672 0.517969 10.1672 0.703125C10.1672 0.729891 10.1692 0.756516 10.1722 0.783C5.95736 1.13855 2.63594 4.6822 2.63594 8.98748V18.075H1.83283C1.44452 18.075 1.12971 18.3898 1.12971 18.7781C1.12971 19.1664 1.44452 19.4813 1.83283 19.4813H3.33911H5.69599C6.04047 22.0293 8.22944 24 10.8704 24C13.5113 24 15.7002 22.0292 16.0447 19.4813H18.4016H19.9078C20.2961 19.4813 20.611 19.1664 20.611 18.7781C20.611 18.3898 20.2961 18.075 19.9078 18.075H19.1047V8.98748C19.1047 8.95247 19.1039 8.91731 19.1035 8.8822C21.2352 8.54452 22.8703 6.69413 22.8703 4.46878ZM10.8703 22.5938C9.00649 22.5938 7.45052 21.2505 7.11958 19.4813H14.6209C14.2901 21.2505 12.7341 22.5938 10.8703 22.5938ZM17.6984 18.075H15.389H6.35158H4.04219V8.98748C4.04219 5.22244 7.10529 2.15934 10.8703 2.15934C12.0373 2.15934 13.1687 2.45348 14.1765 3.01275C14.0187 3.46936 13.9328 3.95916 13.9328 4.46878C13.9328 6.69319 15.5666 8.54302 17.6971 8.88183C17.6977 8.91708 17.6984 8.95233 17.6984 8.98753V18.075ZM18.4016 7.53127C16.7129 7.53127 15.339 6.15745 15.339 4.46878C15.339 4.01564 15.4387 3.58561 15.6161 3.19828C15.6328 3.17859 15.6488 3.15806 15.6636 3.13613C15.7093 3.06858 15.7408 2.99578 15.7604 2.9212C16.2931 2.01567 17.2772 1.40625 18.4016 1.40625C20.0902 1.40625 21.4641 2.78011 21.4641 4.46878C21.4641 6.15745 20.0903 7.53127 18.4016 7.53127Z" fill="#0084C8"/>
<ellipse cx="18.4286" cy="4.71429" rx="4.71428" ry="4.71429" fill="#B0D6E3"/>
</svg>
