<svg width="22" height="24" viewBox="0 0 22 24" fill="none" xmlns="http://www.w3.org/2000/svg">
<path d="M21.8703 4.46878C21.8703 2.0047 19.8657 0 17.4016 0C15.9496 0 14.6575 0.696141 13.8407 1.77202C12.8316 1.21528 11.7206 0.879422 10.5683 0.782672C10.5714 0.756328 10.5734 0.729797 10.5734 0.703125C10.5734 0.517969 10.4984 0.337031 10.3676 0.205781C10.2369 0.075 10.0555 0 9.87029 0C9.68518 0 9.50377 0.075 9.37299 0.205781C9.24221 0.337031 9.16716 0.517969 9.16716 0.703125C9.16716 0.729891 9.16918 0.756516 9.17222 0.783C4.95736 1.13855 1.63594 4.6822 1.63594 8.98748V18.075H0.832832C0.44452 18.075 0.129707 18.3898 0.129707 18.7781C0.129707 19.1664 0.44452 19.4813 0.832832 19.4813H2.33911H4.69599C5.04047 22.0293 7.22944 24 9.87038 24C12.5113 24 14.7002 22.0292 15.0447 19.4813H17.4016H18.9078C19.2961 19.4813 19.611 19.1664 19.611 18.7781C19.611 18.3898 19.2961 18.075 18.9078 18.075H18.1047V8.98748C18.1047 8.95247 18.1039 8.91731 18.1035 8.8822C20.2352 8.54452 21.8703 6.69413 21.8703 4.46878ZM9.87033 22.5938C8.00649 22.5938 6.45052 21.2505 6.11958 19.4813H13.6209C13.2901 21.2505 11.7341 22.5938 9.87033 22.5938ZM16.6984 18.075H14.389H5.35158H3.04219V8.98748C3.04219 5.22244 6.10529 2.15934 9.87033 2.15934C11.0373 2.15934 12.1687 2.45348 13.1765 3.01275C13.0187 3.46936 12.9328 3.95916 12.9328 4.46878C12.9328 6.69319 14.5666 8.54302 16.6971 8.88183C16.6977 8.91708 16.6984 8.95233 16.6984 8.98753V18.075ZM17.4016 7.53127C15.7129 7.53127 14.339 6.15745 14.339 4.46878C14.339 4.01564 14.4387 3.58561 14.6161 3.19828C14.6328 3.17859 14.6488 3.15806 14.6636 3.13613C14.7093 3.06858 14.7408 2.99578 14.7604 2.9212C15.2931 2.01567 16.2772 1.40625 17.4016 1.40625C19.0902 1.40625 20.4641 2.78011 20.4641 4.46878C20.4641 6.15745 19.0903 7.53127 17.4016 7.53127Z" fill="#C3C8D8"/>
</svg>
