<svg width="40" height="40" viewBox="0 0 64 64" fill="none" xmlns="http://www.w3.org/2000/svg">
<rect opacity="0.15" width="64" height="64" rx="15" fill="#FFB965"/>
<path d="M37.324 31.2288C36.9818 31.6597 36.5972 32.0576 36.1556 32.4167C38.6764 33.8627 40.3783 36.5812 40.3783 39.6898C40.3783 41.3694 36.6981 42.6852 31.9999 42.6852C27.3018 42.6852 23.6216 41.3694 23.6216 39.6898C23.6216 36.5812 25.3234 33.8627 27.8443 32.4167C27.4027 32.0576 27.0182 31.6598 26.6759 31.2288C23.8686 33.0015 22 36.1313 22 39.6898C22 40.7677 22.5902 42.27 25.4023 43.3054C27.1564 43.9512 29.4995 44.3068 32 44.3068C34.5005 44.3068 36.8436 43.9512 38.5977 43.3054C41.4097 42.27 42 40.7677 42 39.6898C41.9999 36.1313 40.1312 33.0015 37.324 31.2288Z" fill="#FFB965"/>
<path d="M32 32.2973C35.1515 32.2973 37.5784 29.2509 37.5784 25.6487C37.5784 22.0447 35.1503 19 32 19C28.8485 19 26.4216 22.0463 26.4216 25.6486C26.4216 29.2525 28.8497 32.2973 32 32.2973ZM32 20.6216C34.1817 20.6216 35.9568 22.8767 35.9568 25.6486C35.9568 28.4205 34.1817 30.6756 32 30.6756C29.8183 30.6756 28.0432 28.4205 28.0432 25.6486C28.0432 22.8767 29.8183 20.6216 32 20.6216Z" fill="#FFB965"/>
</svg>
