<svg width="38" height="38" viewBox="0 0 38 38" fill="none" xmlns="http://www.w3.org/2000/svg">
<g clip-path="url(#clip0_3_74)">
<path d="M22.2563 11.9043C18.9742 11.9043 16.3042 9.23415 16.3042 5.9522C16.3042 2.67024 18.9742 0 22.2563 0C23.6811 0 25.0597 0.511441 26.1383 1.44007C26.6084 1.84478 26.6613 2.55379 26.2567 3.02389C25.8519 3.494 25.1429 3.54691 24.6728 3.14227C24.0017 2.56433 23.1435 2.24608 22.2563 2.24608C20.2128 2.24608 18.5502 3.90866 18.5502 5.95212C18.5502 7.99559 20.2128 9.65816 22.2563 9.65816C22.8765 9.65816 23.3794 10.1609 23.3794 10.7812C23.3794 11.4016 22.8765 11.9043 22.2563 11.9043Z" fill="#252E4E"/>
<path d="M22.2563 10.7812C21.9022 10.7812 21.5574 10.742 21.2251 10.6697L20.4064 13.4972H11.391C11.2359 13.4972 11.1102 13.6228 11.1102 13.778V17.6634C11.1102 17.8185 11.2359 17.9442 11.391 17.9442H19.4207L18.556 21.8453H9.76563C9.63382 21.8453 9.51967 21.9371 9.49139 22.0658L7.1247 30.3369H3.01209C2.85698 30.3369 2.73132 30.4626 2.73132 30.6177V34.5031C2.73132 34.6582 2.85698 34.7839 3.01209 34.7839H10.2276C10.3574 34.7839 10.4703 34.695 10.5006 34.5687L13.0894 26.2923H21.8906C22.0217 26.2923 22.1352 26.2017 22.1644 26.0739L26.5617 8.25431C26.5706 8.21535 26.5701 8.17556 26.5626 8.13727C25.7647 9.70596 24.1366 10.7812 22.2563 10.7812Z" fill="#F5FBFD"/>
<path d="M10.2276 35.907H3.01202C2.23792 35.907 1.60825 35.2773 1.60825 34.5032V30.6178C1.60825 29.8437 2.23792 29.214 3.01202 29.214H6.27794L8.40579 21.7773C8.56366 21.1632 9.12794 20.7223 9.76555 20.7223H17.6546L18.0215 19.0673H11.391C10.6169 19.0673 9.98725 18.4376 9.98725 17.6635V13.778C9.98725 13.0039 10.6169 12.3742 11.391 12.3742H19.5623L20.1462 10.3575C20.3106 9.78985 20.8868 9.44711 21.4637 9.57246C21.7254 9.62939 21.992 9.65826 22.2561 9.65826C23.6579 9.65826 24.9244 8.88045 25.5612 7.62838C25.778 7.20184 26.2409 6.9593 26.7154 7.02483C27.1894 7.09022 27.57 7.44869 27.6635 7.91798C27.7026 8.11407 27.7001 8.31104 27.6563 8.50379C27.6548 8.51039 27.6532 8.51693 27.6515 8.52353L23.2558 26.3371C23.1044 26.9727 22.5448 27.4155 21.8902 27.4155H13.9145L11.5793 34.8814C11.4103 35.4878 10.8616 35.907 10.2276 35.907ZM3.85425 33.6609H9.60777L12.0174 25.9571C12.1639 25.4885 12.5981 25.1693 13.0892 25.1693H21.2307L24.6242 11.4169C23.8274 11.7613 22.9445 11.9334 22.0379 11.9003L21.4851 13.8096C21.3461 14.2898 20.9062 14.6203 20.4064 14.6203H12.2334V16.8211H19.4208C19.7613 16.8211 20.0835 16.9756 20.2967 17.2413C20.5098 17.5069 20.591 17.8548 20.5173 18.1872L19.6526 22.0883C19.5386 22.6025 19.0828 22.9684 18.5562 22.9684H10.4012L8.20436 30.6458C8.06646 31.1277 7.6259 31.46 7.12463 31.46H3.85425V33.6609Z" fill="#252E4E"/>
<path d="M23.0425 38.0001C19.7443 38.0001 16.5773 36.7868 14.1251 34.5838C13.7981 34.2902 13.6725 33.8326 13.8038 33.4132L14.9065 29.8877C15.0916 29.2958 15.7216 28.9658 16.3136 29.1511C16.9055 29.3362 17.2354 29.9662 17.0502 30.5581L16.1704 33.3712C18.1237 34.9125 20.5376 35.7538 23.0427 35.7538C29.165 35.7538 34.1458 30.773 34.1458 24.6507C34.1458 20.7078 32.0248 17.0262 28.6105 15.0429C28.0743 14.7314 27.892 14.0439 28.2035 13.5077C28.515 12.9713 29.2025 12.7893 29.7387 13.1007C33.8426 15.4846 36.3919 19.9103 36.3919 24.6507C36.3918 32.0116 30.4033 38.0001 23.0425 38.0001Z" fill="#252E4E"/>
</g>
<defs>
<clipPath id="clip0_3_74">
<rect width="38" height="38" fill="white"/>
</clipPath>
</defs>
</svg>
