<svg width="40" height="40" viewBox="0 0 64 64" fill="none" xmlns="http://www.w3.org/2000/svg">
<rect opacity="0.15" width="64" height="64" rx="15" fill="#1233FE"/>
<rect opacity="0.25" x="26" y="28" width="14" height="14" rx="7" fill="#1233FE"/>
<path d="M35.0333 34.1668H34.5567C34.3774 34.1671 34.217 34.0552 34.1554 33.8868C34.1025 33.7482 34.0458 33.6125 33.9847 33.4782C33.9087 33.3148 33.9434 33.1214 34.0713 32.9946L34.4111 32.6544C34.9154 32.1457 34.9145 31.3251 34.4089 30.8175L33.1843 29.5929C32.6761 29.0877 31.8552 29.0877 31.347 29.5929L31.0072 29.9322C30.8802 30.0597 30.6871 30.0943 30.5236 30.0189C30.3893 29.9578 30.2537 29.901 30.1146 29.8456C29.9453 29.7844 29.8327 29.6234 29.8333 29.4434V28.9668C29.8333 28.2488 29.2513 27.6668 28.5333 27.6668H26.8C26.082 27.6668 25.5 28.2488 25.5 28.9668V29.4434C25.5003 29.6227 25.3885 29.7831 25.2201 29.8447C25.0814 29.8976 24.9458 29.9543 24.8114 30.0154C24.648 30.091 24.4549 30.0564 24.3278 29.9288L23.9877 29.589C23.4795 29.0841 22.659 29.0841 22.1508 29.589L20.9262 30.8175C20.4209 31.3258 20.4209 32.1466 20.9262 32.6549L21.2655 32.9946C21.3934 33.1214 21.4281 33.3148 21.3521 33.4782C21.291 33.6125 21.2343 33.7482 21.181 33.8873C21.1189 34.0567 20.957 34.1686 20.7767 34.1668H20.3C19.582 34.1668 19 34.7488 19 35.4668V37.2001C19 37.9181 19.582 38.5001 20.3 38.5001H20.7767C20.956 38.4998 21.1163 38.6116 21.1779 38.78C21.2308 38.9187 21.2876 39.0543 21.3487 39.1887C21.4246 39.352 21.3899 39.5455 21.262 39.6723L20.9223 40.0124C20.4173 40.5206 20.4173 41.3412 20.9223 41.8493L22.1469 43.0739C22.6551 43.5792 23.476 43.5792 23.9842 43.0739L24.3239 42.7346C24.451 42.6072 24.6441 42.5726 24.8075 42.648C24.9419 42.7091 25.0775 42.7658 25.2166 42.8213C25.3867 42.8818 25.5003 43.0429 25.5 43.2234V43.7001C25.5 44.4181 26.082 45.0001 26.8 45.0001H28.5333C29.2513 45.0001 29.8333 44.4181 29.8333 43.7001V43.2234C29.833 43.0442 29.9449 42.8838 30.1133 42.8222C30.2519 42.7693 30.3876 42.7125 30.5219 42.6514C30.6853 42.5759 30.8785 42.6105 31.0055 42.7381L31.3457 43.0778C31.8546 43.582 32.6749 43.581 33.1826 43.0757L34.4072 41.8511C34.9124 41.3428 34.9124 40.522 34.4072 40.0137L34.0679 39.674C33.9399 39.5472 33.9053 39.3538 33.9812 39.1904C34.0423 39.0561 34.0991 38.9204 34.1545 38.7813C34.2157 38.6121 34.3767 38.4995 34.5567 38.5001H35.0333C35.7513 38.5001 36.3333 37.9181 36.3333 37.2001V35.4668C36.3333 34.7488 35.7513 34.1668 35.0333 34.1668ZM35.4667 37.2001C35.4667 37.4394 35.2726 37.6334 35.0333 37.6334H34.5567C34.018 37.6354 33.5359 37.9684 33.3433 38.4715C33.2974 38.5928 33.2477 38.7123 33.1943 38.8299C32.9715 39.3217 33.0748 39.9 33.4543 40.2841L33.7931 40.6234C33.9625 40.7926 33.9626 41.067 33.7935 41.2363C33.7933 41.2364 33.7932 41.2365 33.7931 41.2366L32.5685 42.4612C32.3993 42.6304 32.125 42.6304 31.9558 42.4612L31.6161 42.1219C31.2321 41.7422 30.6536 41.6387 30.1618 41.8619C30.0444 41.9152 29.9248 41.965 29.8043 42.011C29.3016 42.2035 28.9688 42.6851 28.9667 43.2234V43.7001C28.9667 43.9394 28.7726 44.1334 28.5333 44.1334H26.8C26.5607 44.1334 26.3667 43.9394 26.3667 43.7001V43.2234C26.3647 42.6848 26.0317 42.2027 25.5286 42.0101C25.4073 41.9642 25.2878 41.9145 25.1702 41.861C24.6784 41.6384 24.1002 41.7418 23.716 42.121L23.3767 42.4599C23.2076 42.6292 22.9332 42.6294 22.7638 42.4602C22.7637 42.4601 22.7636 42.46 22.7635 42.4599L21.5389 41.2366C21.3697 41.0674 21.3697 40.7931 21.5389 40.6239L21.8782 40.2841C22.2576 39.9 22.361 39.3217 22.1382 38.8299C22.0849 38.7124 22.0351 38.5928 21.9891 38.4724C21.7971 37.9691 21.3153 37.6358 20.7767 37.6334H20.3C20.0607 37.6334 19.8667 37.4394 19.8667 37.2001V35.4668C19.8667 35.2275 20.0607 35.0334 20.3 35.0334H20.7767C21.3154 35.0314 21.7974 34.6985 21.99 34.1954C22.0359 34.074 22.0856 33.9546 22.1391 33.837C22.3619 33.3452 22.2585 32.7669 21.8791 32.3827L21.5385 32.0434C21.3691 31.8743 21.369 31.5999 21.5381 31.4306C21.5383 31.4305 21.5384 31.4304 21.5385 31.4303L22.7631 30.2057C22.9323 30.0365 23.2066 30.0365 23.3758 30.2057L23.7155 30.545C24.0995 30.9247 24.678 31.0281 25.1698 30.805C25.2872 30.7517 25.4068 30.7018 25.5273 30.6559C26.0307 30.464 26.3642 29.9822 26.3667 29.4434V28.9668C26.3667 28.7275 26.5607 28.5334 26.8 28.5334H28.5333C28.7726 28.5334 28.9667 28.7275 28.9667 28.9668V29.4434C28.9687 29.9821 29.3016 30.4642 29.8047 30.6568C29.9261 30.7027 30.0455 30.7524 30.1631 30.8058C30.6549 31.029 31.2334 30.9256 31.6174 30.5458L31.9567 30.207C32.1265 30.039 32.4 30.039 32.5698 30.207L33.7944 31.4316C33.9636 31.6008 33.9636 31.8751 33.7944 32.0443L33.4551 32.384C33.0758 32.7682 32.9723 33.3465 33.1951 33.8383C33.2484 33.9557 33.2983 34.0753 33.3442 34.1958C33.5367 34.6985 34.0184 35.0313 34.5567 35.0334H35.0333C35.2726 35.0334 35.4667 35.2275 35.4667 35.4668V37.2001V37.2001Z" fill="#1233FE"/>
<path d="M31.5582 36.1599C31.5539 36.0559 31.5465 35.9523 31.534 35.8492C31.5201 35.7383 31.5036 35.6282 31.4807 35.5203C31.4655 35.4497 31.4456 35.3799 31.4265 35.3097C31.4022 35.2204 31.3749 35.1325 31.3446 35.0458C31.3234 34.9856 31.3013 34.9258 31.2787 34.8664C31.2229 34.7276 31.1591 34.5921 31.0876 34.4608C31.082 34.4508 31.0785 34.44 31.0729 34.43C30.9602 34.2294 30.8296 34.0392 30.6829 33.8619C30.6703 33.8463 30.656 33.8316 30.643 33.8164C30.5832 33.7458 30.5217 33.6773 30.4571 33.6119C30.4233 33.5768 30.3878 33.5439 30.3523 33.5101C30.3089 33.4698 30.2656 33.4299 30.2223 33.3918C30.1697 33.3461 30.1161 33.3019 30.0615 33.2592L29.9904 33.2063C29.3199 32.7041 28.5046 32.4328 27.6669 32.4332C27.6236 32.4332 27.5802 32.4397 27.5369 32.4415C27.4446 32.4441 27.3519 32.4493 27.2587 32.4588C27.2097 32.464 27.1603 32.4696 27.1114 32.4766C26.9701 32.4951 26.8299 32.5214 26.6915 32.555C24.6049 33.0942 23.3505 35.2228 23.8897 37.3094C24.245 38.6843 25.3193 39.7577 26.6945 40.1119C26.7014 40.1119 26.7088 40.1141 26.7162 40.1158C26.8658 40.1531 27.0174 40.1821 27.1703 40.2025C27.2713 40.215 27.3722 40.2176 27.4736 40.2224C27.5412 40.2259 27.6036 40.2358 27.6743 40.2358C27.7978 40.2358 27.926 40.2276 28.0569 40.2146C28.0708 40.2146 28.0846 40.2107 28.1002 40.209C28.2055 40.1973 28.3121 40.1817 28.4209 40.16C28.4642 40.1518 28.5045 40.1409 28.5461 40.1314C28.6224 40.1136 28.6982 40.095 28.7762 40.072C28.8369 40.0538 28.8958 40.0326 28.9552 40.0118C29.0146 39.991 29.0761 39.9685 29.1376 39.9451C29.1992 39.9217 29.2507 39.8948 29.3066 39.8688C29.3794 39.8354 29.4518 39.8025 29.5233 39.7635H29.5259C29.9303 39.547 30.3038 39.2772 30.6365 38.9614C30.7264 38.8775 30.8046 38.7819 30.8688 38.6771C31.207 38.1349 31.4292 37.5285 31.5214 36.8961C31.5335 36.8125 31.5444 36.7289 31.5509 36.6435C31.5569 36.5651 31.5613 36.4871 31.563 36.4091C31.563 36.3844 31.5665 36.361 31.5665 36.3363C31.5669 36.2752 31.5608 36.2188 31.5582 36.1599ZM30.6946 36.4437C30.6946 36.4797 30.6916 36.5157 30.6894 36.5512C30.6816 36.6561 30.6682 36.7609 30.6504 36.8662C30.4884 37.7672 29.9291 38.5472 29.1277 38.9896C29.0739 39.0177 29.0211 39.0442 28.9682 39.0684L28.9322 39.0858C28.6805 39.2001 28.4147 39.2805 28.1418 39.325C28.1228 39.328 28.1033 39.3315 28.0838 39.3341C28.0296 39.3419 27.9763 39.3484 27.9234 39.3531C27.8537 39.3592 27.7835 39.3627 27.712 39.364C27.6816 39.364 27.6517 39.364 27.6214 39.364C27.5189 39.3628 27.4165 39.3564 27.3146 39.3449L27.2626 39.3388C27.1434 39.3232 27.0252 39.301 26.9086 39.2721C25.2856 38.8567 24.3067 37.2043 24.7221 35.5813C24.9965 34.5089 25.8334 33.6712 26.9055 33.3957V33.3952C27.1545 33.3324 27.4101 33.3004 27.6669 33.2999C27.7908 33.3006 27.9145 33.309 28.0374 33.325C28.0703 33.3289 28.1028 33.335 28.1353 33.3398C28.2289 33.3545 28.3217 33.3731 28.4131 33.3965C28.443 33.4043 28.4729 33.4113 28.5024 33.4195C28.7328 33.486 28.9546 33.5794 29.1632 33.6977C29.1966 33.7172 29.2291 33.7376 29.262 33.7579C29.3305 33.8013 29.3968 33.8446 29.4622 33.894C29.4973 33.9196 29.5328 33.9447 29.5666 33.972C29.6517 34.0399 29.7331 34.1122 29.8106 34.1887C29.8414 34.2199 29.8695 34.2541 29.8994 34.2866C29.9493 34.3408 29.9978 34.3962 30.0442 34.4547C30.0762 34.495 30.107 34.5366 30.1373 34.5787C30.1807 34.6411 30.224 34.7061 30.263 34.7719C30.2847 34.8079 30.3063 34.843 30.3284 34.8798C30.3843 34.9827 30.4341 35.0887 30.4775 35.1975C30.4948 35.2408 30.5096 35.2841 30.5252 35.3275C30.5533 35.4072 30.5776 35.4878 30.5988 35.5693C30.6097 35.6126 30.6218 35.6512 30.6309 35.6932C30.6562 35.8103 30.6746 35.9288 30.6859 36.0481C30.6885 36.0797 30.6885 36.1118 30.6907 36.1434C30.6968 36.2431 30.6985 36.3432 30.6946 36.4437Z" fill="#1233FE"/>
<path d="M43.7002 28.1H42.3373C42.1556 28.1018 41.993 27.9874 41.9335 27.8157C41.7991 27.4132 41.6365 27.0206 41.4468 26.641C41.3663 26.477 41.3999 26.2799 41.53 26.1517L42.4964 25.1841C43.0036 24.6765 43.0036 23.8539 42.4964 23.3463L40.6538 21.5068C40.1462 20.9996 39.3237 20.9996 38.8161 21.5068L37.8502 22.4723C37.7222 22.6024 37.5253 22.6361 37.3614 22.5559C36.9816 22.3653 36.5889 22.2018 36.1862 22.0667C36.0138 22.0077 35.8985 21.845 35.9002 21.6628V20.3C35.9002 19.582 35.3181 19 34.6002 19H32.0002C31.2822 19 30.7002 19.582 30.7002 20.3V21.6628C30.702 21.8446 30.5876 22.0071 30.4159 22.0667C30.0133 22.2018 29.6207 22.3652 29.2411 22.5555C29.0772 22.6363 28.8799 22.6027 28.7519 22.4723L27.7843 21.506C27.2761 21.0002 26.4547 21.0002 25.9465 21.506L24.1074 23.345C23.5999 23.8527 23.5999 24.6756 24.1074 25.1832L25.5283 26.6067C25.7002 26.7732 25.9745 26.7689 26.1411 26.597C26.3035 26.4293 26.3039 26.163 26.1419 25.9949L24.7202 24.5718C24.551 24.4026 24.551 24.1283 24.7202 23.9591L26.5592 22.12C26.7284 21.9508 27.0027 21.9508 27.172 22.12L28.14 23.0863C28.5317 23.4803 29.1319 23.5788 29.629 23.3307C29.9722 23.1589 30.3271 23.0113 30.6911 22.8892C31.2164 22.7113 31.5691 22.2174 31.5668 21.6628V20.3C31.5668 20.0607 31.7608 19.8667 32.0002 19.8667H34.6002C34.8395 19.8667 35.0335 20.0607 35.0335 20.3V21.6628C35.0313 22.2173 35.384 22.7111 35.9093 22.8887C36.2734 23.0109 36.6284 23.1586 36.9718 23.3307C37.469 23.5775 38.0683 23.4789 38.4603 23.0859L39.4284 22.12C39.5976 21.9508 39.8719 21.9508 40.0411 22.12L41.8802 23.9595C42.049 24.1287 42.049 24.4026 41.8802 24.5718L40.9138 25.5399C40.5202 25.9318 40.4218 26.5317 40.6694 27.0288C40.8413 27.3721 40.9888 27.727 41.111 28.0909C41.2887 28.6163 41.7827 28.9691 42.3373 28.9667H43.7002C43.9395 28.9667 44.1335 29.1607 44.1335 29.4V32C44.1335 32.2393 43.9395 32.4333 43.7002 32.4333H42.3373C41.7828 32.4311 41.2891 32.7838 41.1114 33.3091C40.9893 33.6732 40.8416 34.0283 40.6694 34.3716C40.4222 34.8688 40.5208 35.4683 40.9143 35.8601L41.8806 36.8282C42.0498 36.9974 42.0498 37.2717 41.8806 37.4409L40.0407 39.28C39.8715 39.4489 39.5975 39.4489 39.4284 39.28L38.0044 37.8591C37.8379 37.6872 37.5636 37.6828 37.3917 37.8494C37.2198 38.0159 37.2154 38.2902 37.3819 38.4621C37.3854 38.4657 37.389 38.4692 37.3926 38.4727L38.8161 39.8936C39.3237 40.4008 40.1462 40.4008 40.6538 39.8936L42.4929 38.055C43.0004 37.5473 43.0004 36.7244 42.4929 36.2168L41.5279 35.25C41.3979 35.122 41.3642 34.9252 41.4442 34.7612C41.6348 34.3815 41.7983 33.9888 41.9335 33.586C41.9924 33.4136 42.1552 33.2984 42.3373 33.3H43.7002C44.4181 33.3 45.0002 32.718 45.0002 32V29.4C45.0002 28.682 44.4181 28.1 43.7002 28.1Z" fill="#1233FE"/>
<path d="M37.2833 26.7168C35.0821 24.5202 31.5182 24.5202 29.3169 26.7168C29.1507 26.8889 29.1555 27.1633 29.3276 27.3295C29.4955 27.4917 29.7618 27.4917 29.9297 27.3295C31.7786 25.4556 34.7967 25.4354 36.6706 27.2843C38.5446 29.1333 38.5648 32.1513 36.7158 34.0253C36.7008 34.0404 36.6858 34.0555 36.6706 34.0704C36.4985 34.2367 36.4937 34.511 36.66 34.6832C36.8263 34.8553 37.1006 34.8601 37.2727 34.6938C37.2763 34.6903 37.2799 34.6867 37.2833 34.6832C39.48 32.4819 39.48 28.918 37.2833 26.7168Z" fill="#1233FE"/>
</svg>
