<svg width="249" height="209" viewBox="0 0 249 209" fill="none" xmlns="http://www.w3.org/2000/svg">
<g clip-path="url(#clip0_402_46)">
<path d="M247.859 143.156C241.058 108.9 201.214 81.5228 193.443 45.824C179.318 0.408126 132.764 -6.77211 102.512 12.9521C54.5784 44.2055 105.714 51.9609 11.7308 125.904C-11.476 144.163 -4.08124 224.758 68.925 206.263C108.214 196.309 120.158 194.913 137.83 193.274C182.374 189.141 259.275 200.658 247.859 143.156Z" fill="#F4F4F4"/>
<path d="M202.697 201.441L50.143 201.567C44.0882 201.572 39.9934 197.49 39.9881 191.443L39.8958 96.0339L212.743 95.8903L212.836 191.3C212.837 197.346 208.751 201.436 202.697 201.441Z" fill="white"/>
<path d="M50.1279 201.975C47.0515 201.975 44.416 200.968 42.5051 199.063C40.5942 197.157 39.579 194.52 39.5762 191.442L39.4834 95.6249H39.8921L213.148 95.4808L213.241 191.298C213.246 197.604 209.008 201.845 202.697 201.85L50.143 201.975L50.1279 201.975ZM40.3015 96.4405L40.3935 191.441C40.3959 194.299 41.3257 196.734 43.0821 198.485C44.8385 200.237 47.2725 201.158 50.1279 201.158H50.1393L202.694 201.033C208.517 201.028 212.427 197.114 212.42 191.299L212.328 96.2976L40.3015 96.4405Z" fill="#292A2E"/>
<path d="M212.848 95.2155L130.42 32.7348C129.222 31.8314 127.763 31.3432 126.262 31.3445C124.762 31.3457 123.303 31.8364 122.107 32.7417L39.7839 95.3592C39.6775 95.4401 39.5936 95.5468 39.5403 95.6692C39.4869 95.7916 39.4657 95.9256 39.4789 96.0585C39.492 96.1914 39.539 96.3187 39.6154 96.4283C39.6917 96.5379 39.7949 96.6261 39.9151 96.6846L118.157 134.788C120.44 135.935 122.951 136.558 125.507 136.609C128.062 136.661 130.596 136.14 132.923 135.084C133.005 135.047 133.087 135.009 133.169 134.971L212.717 96.5438C212.838 96.4856 212.941 96.3975 213.018 96.2877C213.095 96.178 213.142 96.0504 213.156 95.9171C213.169 95.7839 213.148 95.6495 213.094 95.5267C213.04 95.404 212.956 95.2971 212.849 95.2163L212.848 95.2155Z" fill="#292A2E"/>
<path d="M161.27 66.39C164.191 79.312 168.191 87.6254 166.199 92.3997C165.152 94.9097 163.003 97.0124 159.447 97.0124C153.903 97.0124 153.903 90.4812 148.358 90.4812C142.813 90.4812 142.814 97.0124 137.27 97.0124C131.726 97.0124 131.727 90.4812 126.183 90.4812C120.64 90.4812 120.64 97.0124 115.096 97.0124C109.553 97.0124 109.553 90.4812 104.009 90.4812C98.4656 90.4812 98.4664 97.0124 92.9233 97.0124C89.6323 97.0124 87.7721 95.0763 86.5923 92.8394C83.7569 87.4642 90.365 75.6362 92.9233 65.2067C95.7504 53.6811 95.5122 39.3268 95.8914 30.6677C96.6233 13.9727 109.455 0.408203 126.187 0.408203C142.918 0.408203 155.264 14.0013 156.482 30.6693C157.14 39.6554 158.596 54.5612 161.27 66.39Z" fill="white"/>
<path d="M159.447 97.4222C156.485 97.4222 155.014 95.689 153.591 94.0125C152.228 92.4071 150.941 90.891 148.358 90.891C145.775 90.891 144.489 92.4071 143.127 94.0125C141.704 95.6886 140.232 97.4222 137.271 97.4222C134.31 97.4222 132.839 95.689 131.416 94.0125C130.053 92.4071 128.767 90.891 126.185 90.891C123.603 90.891 122.316 92.4071 120.954 94.0125C119.531 95.6886 118.06 97.4222 115.099 97.4222C112.138 97.4222 110.666 95.689 109.243 94.0125C107.881 92.4071 106.594 90.891 104.012 90.891C101.431 90.891 100.144 92.4071 98.7816 94.0125C97.3586 95.6886 95.8878 97.4222 92.9266 97.4222C89.9818 97.4222 87.7926 95.9862 86.234 93.0308C84.2572 89.2835 86.6316 82.6572 89.1453 75.6415C90.4499 72.19 91.5795 68.675 92.5298 65.1099C94.7906 55.8928 95.0766 45.062 95.3063 36.3588C95.3607 34.3002 95.4117 32.3559 95.4869 30.6505C95.7855 22.5341 99.0864 14.8165 104.751 8.99017C107.54 6.13546 110.875 3.86886 114.557 2.32461C118.239 0.780368 122.194 -0.0101176 126.187 -2.66641e-05C130.155 -0.00955417 134.085 0.783228 137.738 2.33058C141.392 3.87793 144.694 6.14785 147.446 9.00364C152.929 14.6421 156.283 22.3261 156.891 30.6382C157.477 38.6537 158.877 53.9465 161.67 66.299C162.617 70.4892 163.677 74.1903 164.612 77.4559C166.565 84.2749 167.976 89.2015 166.577 92.5556C165.818 94.3758 163.885 97.4222 159.447 97.4222ZM148.358 90.0746C151.319 90.0746 152.791 91.8078 154.214 93.4847C155.577 95.0897 156.864 96.6058 159.447 96.6058C163.411 96.6058 165.143 93.8709 165.822 92.243C167.111 89.1525 165.733 84.341 163.825 77.6816C162.885 74.4054 161.823 70.6929 160.871 66.4802C158.067 54.0742 156.662 38.7369 156.075 30.6991C154.829 13.6632 141.98 0.816373 126.187 0.816373C110.162 0.816373 97.0341 13.9371 96.3002 30.6872C96.2258 32.3853 96.1743 34.3263 96.12 36.3812C95.9017 44.6619 95.6022 56.0026 93.3206 65.305C92.3638 68.8978 91.226 72.4401 89.9115 75.9182C87.4595 82.7588 85.1445 89.2206 86.954 92.6512C88.3578 95.3122 90.3104 96.6062 92.9234 96.6062C95.5057 96.6062 96.7926 95.0902 98.1543 93.4851C99.5773 91.8082 101.048 90.075 104.009 90.075C106.97 90.075 108.441 91.8082 109.864 93.4851C111.227 95.0902 112.513 96.6062 115.095 96.6062C117.677 96.6062 118.965 95.0897 120.326 93.4851C121.749 91.8082 123.22 90.075 126.181 90.075C129.142 90.075 130.613 91.8086 132.036 93.4851C133.399 95.0902 134.685 96.6062 137.267 96.6062C139.849 96.6062 141.137 95.0897 142.498 93.4851C143.925 91.8078 145.397 90.0746 148.358 90.0746Z" fill="#292A2E"/>
<path d="M114.803 32.6217C116.657 32.6217 118.161 31.12 118.161 29.2675C118.161 27.415 116.657 25.9133 114.803 25.9133C112.948 25.9133 111.445 27.415 111.445 29.2675C111.445 31.12 112.948 32.6217 114.803 32.6217Z" fill="#292A2E"/>
<path d="M137.83 32.6217C139.685 32.6217 141.188 31.12 141.188 29.2675C141.188 27.415 139.685 25.9133 137.83 25.9133C135.976 25.9133 134.472 27.415 134.472 29.2675C134.472 31.12 135.976 32.6217 137.83 32.6217Z" fill="#292A2E"/>
<path d="M132.33 38.3206C132.524 38.32 132.715 38.3627 132.891 38.4454C133.066 38.5281 133.22 38.6488 133.343 38.7988C133.466 38.9487 133.553 39.124 133.6 39.312C133.646 39.5 133.65 39.696 133.61 39.8856C132.891 43.2492 129.899 45.3628 126.317 45.3628C122.735 45.3628 119.742 43.2492 119.022 39.8856C118.983 39.696 118.987 39.5 119.033 39.312C119.08 39.124 119.167 38.9487 119.29 38.7987C119.413 38.6488 119.567 38.5281 119.743 38.4454C119.918 38.3627 120.109 38.32 120.303 38.3206H132.33Z" fill="white"/>
<path d="M126.318 45.771C122.459 45.771 119.367 43.4402 118.624 39.9709C118.571 39.7237 118.575 39.4677 118.634 39.222C118.693 38.9762 118.807 38.7468 118.967 38.5508C119.128 38.3511 119.331 38.19 119.563 38.0795C119.795 37.969 120.048 37.9119 120.305 37.9124H132.332C132.588 37.9121 132.842 37.9693 133.073 38.0798C133.305 38.1903 133.509 38.3512 133.67 38.5508C133.83 38.7468 133.943 38.9762 134.002 39.222C134.062 39.4678 134.065 39.7237 134.012 39.9709C133.268 43.4402 130.176 45.771 126.318 45.771ZM120.303 38.7288C120.168 38.7286 120.035 38.7587 119.914 38.8168C119.792 38.8748 119.685 38.9594 119.6 39.0643C119.518 39.1657 119.459 39.2844 119.428 39.4115C119.397 39.5386 119.395 39.6711 119.422 39.7991C120.082 42.8822 122.852 44.9534 126.317 44.9534C129.781 44.9534 132.551 42.8822 133.211 39.7991C133.238 39.671 133.236 39.5385 133.205 39.4114C133.174 39.2842 133.115 39.1656 133.032 39.0643C132.948 38.9594 132.841 38.8748 132.719 38.8167C132.598 38.7586 132.465 38.7286 132.33 38.7288H120.303Z" fill="#292A2E"/>
<path d="M209.645 199.066C209.575 199.067 209.507 199.049 209.446 199.015C209.386 198.982 209.335 198.933 209.298 198.874L192.841 172.553C192.813 172.507 192.794 172.456 192.785 172.403C192.776 172.35 192.778 172.296 192.79 172.244C192.802 172.192 192.825 172.142 192.856 172.099C192.887 172.055 192.927 172.018 192.972 171.99C193.018 171.961 193.069 171.942 193.122 171.933C193.175 171.924 193.229 171.926 193.281 171.938C193.334 171.95 193.383 171.973 193.427 172.004C193.471 172.035 193.508 172.075 193.536 172.12L209.993 198.442C210.031 198.504 210.053 198.575 210.054 198.648C210.056 198.721 210.039 198.793 210.003 198.856C209.968 198.92 209.916 198.973 209.853 199.01C209.791 199.047 209.719 199.066 209.646 199.066H209.645Z" fill="#292A2E"/>
<path d="M173.56 201.885C173.456 201.884 173.357 201.845 173.281 201.774C173.206 201.703 173.16 201.606 173.153 201.503C173.146 201.4 173.179 201.298 173.245 201.218C173.31 201.138 173.404 201.086 173.506 201.072C173.578 201.062 180.69 200.065 183.471 195.419C184.894 193.043 184.957 190.094 183.66 186.653C183.63 186.575 183.626 186.489 183.647 186.407C183.668 186.326 183.713 186.253 183.778 186.198C183.842 186.144 183.921 186.111 184.005 186.103C184.089 186.095 184.173 186.114 184.246 186.155C184.303 186.188 189.999 189.406 193.493 187.222C195.646 185.875 196.57 182.74 196.239 177.9C196.234 177.827 196.248 177.754 196.281 177.688C196.314 177.623 196.364 177.568 196.426 177.528C196.487 177.489 196.558 177.466 196.631 177.464C196.705 177.461 196.777 177.478 196.841 177.513C196.904 177.547 203.201 180.897 207.891 178.901C210.081 177.967 211.604 175.994 212.417 173.035C212.43 172.982 212.454 172.932 212.486 172.889C212.519 172.845 212.56 172.808 212.607 172.78C212.654 172.753 212.706 172.735 212.761 172.728C212.815 172.72 212.87 172.724 212.922 172.739C212.975 172.753 213.024 172.778 213.067 172.812C213.11 172.845 213.146 172.887 213.172 172.935C213.198 172.983 213.215 173.036 213.221 173.09C213.226 173.144 213.221 173.199 213.205 173.251C212.322 176.463 210.642 178.617 208.209 179.652C204.018 181.437 198.883 179.388 197.094 178.55C197.307 183.32 196.241 186.469 193.923 187.916C190.882 189.816 186.619 188.209 184.759 187.335C185.787 190.614 185.591 193.472 184.17 195.842C181.183 200.827 173.921 201.843 173.613 201.883C173.596 201.885 173.578 201.885 173.56 201.885Z" fill="#292A2E"/>
<path d="M192.376 201.886C192.315 201.886 192.276 201.886 192.265 201.886C192.157 201.882 192.055 201.835 191.982 201.755C191.908 201.676 191.869 201.571 191.873 201.463C191.874 201.409 191.886 201.356 191.908 201.307C191.93 201.257 191.961 201.213 192.001 201.176C192.041 201.14 192.087 201.112 192.138 201.093C192.189 201.075 192.243 201.067 192.297 201.071C192.32 201.074 194.642 201.139 195.695 199.676C196.425 198.664 196.409 197.126 195.648 195.107C195.619 195.031 195.614 194.949 195.632 194.87C195.651 194.791 195.693 194.719 195.752 194.664C195.812 194.609 195.887 194.573 195.967 194.56C196.047 194.548 196.129 194.559 196.203 194.593C196.244 194.612 200.285 196.461 202.481 194.954C203.577 194.202 204.055 192.698 203.904 190.482C203.899 190.411 203.912 190.34 203.943 190.276C203.974 190.212 204.021 190.158 204.079 190.117C204.138 190.077 204.206 190.053 204.276 190.047C204.347 190.041 204.418 190.053 204.483 190.083C204.524 190.101 208.357 191.838 210.664 190.468C211.714 189.845 212.307 188.641 212.425 186.887C212.428 186.834 212.442 186.781 212.466 186.733C212.49 186.685 212.523 186.642 212.564 186.607C212.604 186.572 212.651 186.544 212.702 186.527C212.753 186.51 212.807 186.503 212.861 186.507C212.915 186.51 212.967 186.525 213.015 186.548C213.063 186.572 213.106 186.605 213.142 186.646C213.177 186.686 213.204 186.733 213.221 186.784C213.239 186.835 213.246 186.889 213.242 186.943C213.104 188.98 212.378 190.403 211.081 191.171C208.982 192.415 206.014 191.545 204.747 191.072C204.781 193.252 204.175 194.783 202.942 195.628C201.016 196.948 198.12 196.181 196.7 195.672C197.258 197.562 197.143 199.068 196.356 200.157C195.178 201.787 192.911 201.886 192.376 201.886Z" fill="#292A2E"/>
<path d="M204.934 201.647C204.85 201.648 204.767 201.622 204.698 201.573L179.198 183.594C179.109 183.532 179.049 183.437 179.031 183.33C179.012 183.223 179.037 183.114 179.099 183.025C179.162 182.937 179.257 182.877 179.364 182.858C179.471 182.84 179.581 182.865 179.669 182.927L205.17 200.906C205.241 200.956 205.294 201.027 205.322 201.109C205.349 201.192 205.35 201.28 205.324 201.363C205.297 201.446 205.246 201.518 205.175 201.569C205.105 201.62 205.021 201.648 204.934 201.647Z" fill="#292A2E"/>
</g>
<defs>
<clipPath id="clip0_402_46">
<rect width="249" height="209" fill="white"/>
</clipPath>
</defs>
</svg>
