<svg width="302" height="205" viewBox="0 0 302 205" fill="none" xmlns="http://www.w3.org/2000/svg">
<g clip-path="url(#clip0_411_189)">
<path d="M234.574 27.8995C219.826 27.8995 213.665 31.1543 222.181 45.9404C230.697 60.7265 256.553 75.9588 264.587 58.2625C269.863 46.6388 254.223 27.8995 234.574 27.8995Z" fill="#F3F5FD"/>
<path d="M29.8779 205C24.7646 205.005 19.7744 203.431 15.5891 200.493C11.4038 197.555 8.22734 193.397 6.49368 188.587C-1.12326 167.368 -7.83395 128.062 21.9886 85.5473C54.9642 38.5378 83.052 5.59406 129.452 0.616863C202.141 -7.17957 210.065 61.0873 240.907 83.4822C267.893 103.077 295.976 124.231 301.31 177.635C301.657 181.093 301.276 184.586 300.191 187.888C299.106 191.19 297.342 194.228 295.011 196.806C292.68 199.384 289.835 201.445 286.659 202.856C283.482 204.268 280.046 204.998 276.57 204.999L29.8779 205Z" fill="#F3F5FD"/>
<path d="M113.793 15.0833V20.1531H90.5418C88.0779 20.1532 85.715 21.1319 83.9725 22.8739C82.2301 24.6159 81.2509 26.9786 81.2502 29.4425V195.708C81.2502 198.173 82.2292 200.536 83.9717 202.279C85.7142 204.021 88.0775 205 90.5418 205H214.669C215.889 205 217.097 204.76 218.225 204.293C219.352 203.826 220.377 203.142 221.24 202.279C222.102 201.416 222.787 200.392 223.254 199.264C223.72 198.137 223.961 196.929 223.96 195.708V29.4425C223.96 26.9785 222.981 24.6157 221.238 22.8737C219.496 21.1316 217.133 20.153 214.669 20.1531H191.418V15.0833C191.418 14.2238 191.249 13.3727 190.92 12.5785C190.591 11.7843 190.109 11.0627 189.502 10.4548C188.894 9.84697 188.172 9.36476 187.378 9.03576C186.584 8.70675 185.733 8.53739 184.874 8.53735H120.337C119.477 8.53739 118.626 8.70675 117.832 9.03575C117.038 9.36475 116.317 9.84695 115.709 10.4548C115.101 11.0627 114.619 11.7843 114.29 12.5785C113.962 13.3726 113.792 14.2238 113.793 15.0833V15.0833Z" fill="#C1D8ED"/>
<path d="M89.8438 32.08L89.8438 193.071C89.8438 195.381 91.7161 197.253 94.0258 197.253H211.184C213.494 197.253 215.366 195.381 215.366 193.071V32.08C215.366 29.7703 213.494 27.8979 211.184 27.8979H94.0258C91.7161 27.8979 89.8438 29.7703 89.8438 32.08Z" fill="#FAFAFA"/>
<path d="M122.118 20.434V35.3624C122.118 36.9329 123.391 38.2059 124.961 38.2059L180.249 38.2059C181.82 38.2059 183.093 36.9329 183.093 35.3624V20.434C183.093 18.8636 181.82 17.5905 180.249 17.5905L124.961 17.5905C123.391 17.5905 122.118 18.8636 122.118 20.434Z" fill="#0CBC8B"/>
<path d="M124.16 49.5147C120.901 46.1183 115.507 46.8819 112.11 50.1404L111.896 50.3539L111.665 50.1231C108.34 46.7928 102.943 45.913 99.6129 49.2389C98.821 50.0297 98.1925 50.9687 97.7634 52.0024C97.3344 53.0361 97.1131 54.1441 97.1123 55.2633C97.1115 56.3825 97.3311 57.4909 97.7587 58.5252C98.1862 59.5595 98.8133 60.4995 99.6041 61.2914L111.889 73.3575C111.899 73.3669 111.911 73.3721 111.925 73.3721C111.938 73.3721 111.951 73.3669 111.961 73.3575L124.16 61.3144C125.682 59.7275 126.532 57.6136 126.532 55.4146C126.532 53.2156 125.682 51.1017 124.16 49.5147Z" fill="#FD5D76"/>
<path d="M115.106 60.6012C114.989 60.6019 114.875 60.6359 114.777 60.6993C114.679 60.7627 114.601 60.8527 114.552 60.9589L113.517 63.2576L112.051 53.6893C112.028 53.5493 111.958 53.4214 111.851 53.3278C111.745 53.2342 111.609 53.1807 111.467 53.1766C111.327 53.177 111.192 53.224 111.081 53.3101C110.971 53.3963 110.893 53.5167 110.858 53.6524L109.095 61.6211L108.666 61.0953C108.61 61.0258 108.538 60.9699 108.457 60.9315C108.376 60.893 108.288 60.873 108.198 60.8729H98.7886L99.2726 61.4007C99.3078 61.4394 99.3447 61.4763 99.3834 61.5147L99.9653 62.0865H107.908L108.943 63.3578C109.014 63.4465 109.11 63.5132 109.218 63.5502C109.326 63.5871 109.442 63.5929 109.553 63.5669C109.664 63.5408 109.766 63.4839 109.846 63.4027C109.926 63.3216 109.982 63.2194 110.007 63.108L111.343 57.0791L112.627 65.4663C112.646 65.5916 112.703 65.7078 112.792 65.7984C112.88 65.8889 112.995 65.949 113.12 65.9701C113.155 65.9776 113.192 65.9811 113.228 65.9805C113.345 65.9802 113.459 65.9463 113.557 65.8828C113.655 65.8194 113.733 65.7291 113.781 65.6228L115.498 61.8126H124.099L124.386 61.5292C124.515 61.395 124.639 61.2577 124.758 61.1173L125.199 60.5987L115.106 60.6012Z" fill="white"/>
<path d="M48.5963 74.3315L48.3507 74.3598H40.5898C41.2196 73.3144 41.8998 71.2645 41.5849 67.4322L46.6169 66.5001C46.6169 66.5001 46.0488 72.4453 48.5963 74.3315Z" fill="#E98862"/>
<path opacity="0.15" d="M47.5643 73.0896L43.385 69.8922L46.6675 69.8582C46.7626 70.9817 47.0667 72.0777 47.5643 73.0896V73.0896Z" fill="black"/>
<path d="M38.7301 64.862C39.0787 66.8738 40.1764 68.7786 41.9508 69.4279C43.8851 70.1955 45.9777 70.4782 48.0462 70.2514C53.5537 69.7998 52.4642 57.2778 49.8496 54.8449C47.2351 52.412 39.5611 53.9528 38.6278 58.0212C38.1451 60.126 38.3989 62.9471 38.7301 64.862Z" fill="#E98862"/>
<path d="M51.6661 55.2779C51.5018 55.0171 51.2715 54.8042 50.9986 54.6607C48.5528 53.3309 44.0205 52.8709 41.8437 53.5221C39.3182 54.2778 36.1517 56.3948 36.9628 61.5282C36.9972 61.7446 37.034 61.9527 37.0721 62.158C36.2745 62.0217 35.4548 62.1075 34.7027 62.4061C33.9507 62.7047 33.2953 63.2045 32.8084 63.8507C32.3215 64.497 32.0218 65.2648 31.9423 66.07C31.8627 66.8753 32.0063 67.6869 32.3573 68.4159C32.7083 69.145 33.2532 69.7634 33.9323 70.2034C34.6114 70.6433 35.3985 70.8879 36.2074 70.9103C37.0162 70.9327 37.8156 70.7321 38.518 70.3304C39.2204 69.9286 39.7987 69.3414 40.1896 68.6328C40.5642 68.9565 40.9689 69.2436 41.3981 69.4903C41.6995 69.6695 41.7725 69.5237 41.8771 69.1889C42.2423 68.0207 42.6013 63.399 42.3148 60.0429L48.2492 59.8379L49.2834 56.8958L50.1307 59.8379H52.152C52.4232 58.2426 52.7028 56.4358 51.6661 55.2779Z" fill="#0F1011"/>
<path d="M46.6084 63.3123C46.8604 63.3123 47.0647 63.108 47.0647 62.8561C47.0647 62.6041 46.8604 62.3998 46.6084 62.3998C46.3564 62.3998 46.1521 62.6041 46.1521 62.8561C46.1521 63.108 46.3564 63.3123 46.6084 63.3123Z" fill="#0F1011"/>
<path d="M50.2077 63.0173C50.4597 63.0173 50.664 62.813 50.664 62.561C50.664 62.309 50.4597 62.1047 50.2077 62.1047C49.9558 62.1047 49.7515 62.309 49.7515 62.561C49.7515 62.813 49.9558 63.0173 50.2077 63.0173Z" fill="#0F1011"/>
<path d="M50.9986 61.5886H50.9961L49.7872 61.5735C49.7591 61.5733 49.7312 61.5676 49.7053 61.5567C49.6793 61.5457 49.6558 61.5298 49.636 61.5097C49.6162 61.4897 49.6006 61.4659 49.59 61.4398C49.5794 61.4138 49.574 61.3858 49.5742 61.3577C49.5744 61.3295 49.5801 61.3017 49.5911 61.2757C49.602 61.2498 49.618 61.2262 49.638 61.2065C49.6581 61.1867 49.6818 61.171 49.7079 61.1604C49.734 61.1498 49.7619 61.1445 49.7901 61.1447H49.7926L51.0015 61.1601C51.0569 61.1626 51.1092 61.1864 51.1474 61.2266C51.1856 61.2668 51.2068 61.3203 51.2064 61.3757C51.206 61.4312 51.1842 61.4844 51.1454 61.5241C51.1067 61.5638 51.0541 61.5869 50.9986 61.5886V61.5886Z" fill="#0F1011"/>
<path d="M45.6233 62.0294C45.5709 62.0293 45.5203 62.01 45.4812 61.9751C45.442 61.9402 45.417 61.8921 45.4109 61.8401C45.4048 61.788 45.4179 61.7355 45.4479 61.6924C45.4779 61.6494 45.5226 61.6188 45.5736 61.6065L46.7651 61.3197C46.8199 61.3078 46.8771 61.3179 46.9246 61.3477C46.972 61.3775 47.0059 61.4247 47.019 61.4792C47.0321 61.5337 47.0233 61.5911 46.9946 61.6392C46.9659 61.6873 46.9194 61.7223 46.8653 61.7366L45.6737 62.0235C45.6572 62.0273 45.6403 62.0293 45.6233 62.0294V62.0294Z" fill="#0F1011"/>
<path d="M44.2347 63.9727C44.2689 64.4799 44.1021 64.9801 43.7704 65.3652C43.4387 65.7504 42.9687 65.9895 42.4621 66.0308C41.9555 66.0722 41.453 65.9125 41.0632 65.5863C40.6734 65.2601 40.4277 64.7936 40.3791 64.2876C40.354 64.0336 40.3802 63.7772 40.4562 63.5335C40.5322 63.2899 40.6565 63.064 40.8216 62.8694C40.9867 62.6747 41.1893 62.5153 41.4174 62.4006C41.6454 62.2859 41.8941 62.2183 42.1488 62.2018C43.5274 62.158 44.1481 62.9081 44.2347 63.9727Z" fill="#E98862"/>
<g opacity="0.15">
<path opacity="0.15" d="M48.6336 65.387C48.5959 65.387 48.5594 65.3735 48.5308 65.3489C48.5022 65.3243 48.4834 65.2902 48.4778 65.2529C48.4722 65.2156 48.4802 65.1775 48.5003 65.1456C48.5204 65.1137 48.5513 65.0901 48.5873 65.079L49.5153 64.794L48.8663 63.3483C48.8508 63.3105 48.8505 63.2681 48.8657 63.2301C48.8808 63.1921 48.9102 63.1615 48.9475 63.1448C48.9848 63.128 49.0272 63.1265 49.0657 63.1404C49.1041 63.1544 49.1356 63.1828 49.1535 63.2195L49.8756 64.8277C49.8847 64.8481 49.8894 64.8701 49.8894 64.8925C49.8894 64.9148 49.8846 64.9368 49.8754 64.9572C49.8662 64.9775 49.8528 64.9957 49.836 65.0104C49.8193 65.0252 49.7996 65.0362 49.7783 65.0428L48.6799 65.38C48.6649 65.3846 48.6493 65.387 48.6336 65.387V65.387Z" fill="black"/>
</g>
<path d="M46.8193 66.4498C46.8193 66.4498 48.5037 66.6274 49.6849 66.2148C49.6849 66.2148 49.6754 67.3242 48.3428 67.4335C47.0102 67.5428 46.8193 66.4498 46.8193 66.4498Z" fill="#F8FCFF"/>
<path d="M29.7891 149.238H60.2757L54.1227 109.171L33.3303 110.598L29.7891 149.238Z" fill="#DEE8F5"/>
<path opacity="0.07" d="M29.7891 149.238H60.2757L54.1227 109.171L33.3303 110.598L29.7891 149.238Z" fill="#0F1011"/>
<path d="M60.689 201.595L54.1226 200.813C54.4182 198.328 54.7523 195.343 54.775 194.853C54.775 194.885 54.775 194.91 54.775 194.93H61.3878C61.3862 195.128 61.3862 195.731 60.689 201.595Z" fill="#E98862"/>
<path d="M34.34 202.384L27.7273 202.362C27.7273 202.362 27.7497 195.534 27.7497 194.93H34.3624C34.3624 195.536 34.34 202.384 34.34 202.384Z" fill="#E98862"/>
<path d="M51.4794 199.505L63.1286 199.306C62.5816 185.441 62.5479 170.897 62.3773 156.999C60.1037 142.018 59.2211 124.275 56.4148 109.402H31.3824C31.3824 109.402 27.4462 177.359 26.0232 199.13L37.633 200.111C39.7248 178.765 43.2768 150.497 45.2679 128.074C47.554 138.991 48.7947 147.461 50.7829 158.284C51.1806 171.833 51.5166 185.997 51.4794 199.505Z" fill="#262626"/>
<path d="M42.3789 204.941C42.5568 204.94 42.7325 204.903 42.8952 204.831C43.0579 204.759 43.2041 204.655 43.3245 204.524C43.445 204.393 43.5371 204.239 43.5953 204.071C43.6534 203.903 43.6763 203.724 43.6624 203.547C43.6433 203.301 43.5543 203.066 43.406 202.869C43.2578 202.673 43.0563 202.522 42.8254 202.436L35.1285 199.858C34.9794 199.808 34.8214 199.792 34.6653 199.809C34.5092 199.827 34.3587 199.878 34.2241 199.959C33.166 200.693 31.9002 201.068 30.613 201.029C29.6103 200.958 28.6479 200.606 27.8353 200.015C27.7639 199.956 27.6773 199.919 27.5856 199.908C27.494 199.896 27.401 199.912 27.3175 199.951C27.2341 199.991 27.1637 200.053 27.1144 200.131C27.0652 200.21 27.0392 200.3 27.0396 200.393V204.156C27.0396 204.267 27.0615 204.377 27.1041 204.48C27.1467 204.582 27.2091 204.675 27.2878 204.754C27.3664 204.832 27.4598 204.894 27.5625 204.936C27.6652 204.978 27.7753 205 27.8863 204.999L42.3789 204.941Z" fill="#C1D8ED"/>
<path d="M68.746 204.941C68.9239 204.94 69.0997 204.903 69.2624 204.831C69.4251 204.759 69.5712 204.655 69.6917 204.524C69.8122 204.393 69.9044 204.239 69.9626 204.071C70.0208 203.903 70.0437 203.724 70.0299 203.547V203.547C70.0106 203.301 69.9216 203.066 69.7733 202.869C69.625 202.673 69.4235 202.522 69.1926 202.436L61.4959 199.858C61.3468 199.808 61.1887 199.792 61.0326 199.809C60.8764 199.827 60.7259 199.878 60.5913 199.959C59.5331 200.693 58.2674 201.068 56.9801 201.029C55.9775 200.958 55.0152 200.606 54.2027 200.015C54.1313 199.956 54.0447 199.919 53.9531 199.908C53.8614 199.896 53.7684 199.912 53.685 199.951C53.6015 199.991 53.5311 200.053 53.4819 200.131C53.4327 200.21 53.4067 200.3 53.407 200.393V204.156C53.407 204.267 53.4289 204.377 53.4715 204.48C53.5141 204.582 53.5765 204.675 53.6552 204.754C53.7339 204.832 53.8272 204.894 53.93 204.936C54.0327 204.978 54.1427 205 54.2537 204.999L68.746 204.941Z" fill="#C1D8ED"/>
<path d="M28.3875 118.914L28.4568 118.77C28.5707 119.702 29.4443 122.755 28.6806 123.075C28.3903 123.196 27.9451 122.336 27.6579 121.689C27.0341 123.11 27.1292 126.322 27.2435 128.126C27.2509 128.245 27.2222 128.364 27.161 128.467C27.0998 128.57 27.0091 128.651 26.9006 128.702C26.7921 128.752 26.6709 128.769 26.5529 128.749C26.4349 128.729 26.3256 128.675 26.2393 128.592C22.8504 125.341 24.6623 118.738 24.6623 118.738L25.0128 117.072L28.3875 118.914Z" fill="#E98862"/>
<path d="M82.983 84.0666C83.8757 85.0913 83.3782 86.8647 81.0114 88.3076C77.4138 90.5005 76.4455 89.4604 75.554 88.4357C74.6625 87.4111 77.6487 86.1468 79.7166 83.9957C79.9245 83.7661 80.1794 83.5838 80.464 83.4612C80.7486 83.3386 81.0562 83.2787 81.366 83.2854C81.6757 83.2921 81.9804 83.3654 82.2594 83.5002C82.5384 83.6349 82.7852 83.8281 82.983 84.0666V84.0666Z" fill="#E98862"/>
<path d="M75.3922 86.8515C75.3437 86.8937 78.4728 82.3256 79.6165 83.4692C80.1203 83.9731 78.6403 85.7028 78.6403 85.7028" fill="#E98862"/>
<path d="M57.6806 110.094C56.3615 113.127 30.4364 114.386 30.09 109.052C29.8696 105.658 32.8611 102.694 32.8611 96.0785C32.8611 89.4626 26.7742 81.0141 31.7338 76.0545C33.1731 74.6154 35.6576 73.6865 38.6866 73.6833C38.9136 75.4499 49.6389 75.4562 49.7204 73.7243C50.1298 73.7306 50.4482 73.7369 50.6462 73.7463C61.0947 74.1966 56.5032 86.087 56.4028 94.8221C56.2797 105.044 59.0425 106.971 57.6806 110.094Z" fill="#F4F4F4"/>
<path d="M57.6805 110.094C56.3614 113.127 31.7286 114.736 31.3822 109.402C31.1618 106.007 32.8622 102.694 32.8622 96.0785C32.8622 89.4626 27.3541 81.0981 32.3137 76.1386C33.7527 74.6995 35.7995 73.8272 38.8288 73.8241C39.0555 75.5906 49.6441 75.6398 49.726 73.9079C50.1354 73.9142 50.4534 73.9205 50.6518 73.9299C61.0999 74.3802 56.5047 86.087 56.4039 94.8221C56.2795 105.044 59.0424 106.971 57.6805 110.094Z" fill="#367CFF"/>
<path d="M49.7216 73.7243C49.64 75.4562 48.4142 75.7553 45.5077 75.9474C41.6345 76.2025 38.9148 75.4499 38.6877 73.6833H38.6975C42.5105 73.6849 47.4969 73.6896 49.7216 73.7243Z" fill="#E98862"/>
<path d="M43.4516 91.334C44.839 105.362 42.9751 131.337 42.9584 152.985C42.9584 152.985 33.7859 154.834 26.0232 151.753C26.0232 151.753 30.6836 102.076 32.0061 90.9294C32.0061 90.9294 31.797 97.0279 31.0577 100.527C30.3183 104.027 29.6044 119.497 29.6044 119.497C29.6044 119.497 27.9695 119.853 22.8157 119.853C22.8157 119.853 22.8157 102.493 24.0478 97.4411C25.28 92.3889 29.5742 75.7705 33.3299 74.4677C36.3391 73.4236 40.541 73.6833 40.541 73.6833C40.541 73.6833 42.8186 84.9335 43.4516 91.334Z" fill="#DEE8F5"/>
<path d="M40.5401 73.6849C40.5401 73.6849 43.8899 86.5788 43.8899 99.8453L38.0959 81.3009L39.96 78.96L37.3464 77.1116L37.8377 73.7133C38.6863 73.5398 40.5401 73.6849 40.5401 73.6849Z" fill="white"/>
<path d="M48.3844 73.6849C48.3844 73.6849 47.7981 82.9028 47.7981 91.5283C47.7981 100.154 49.1666 153.524 49.1666 153.524C49.1666 153.524 60.146 153.608 63.6763 152.85C63.6763 152.85 62.3943 135.374 60.0704 113.831C58.6751 100.895 57.4716 93.7937 57.1942 91.5283C57.1942 91.5283 62.0394 100.69 65.5313 100.69C69.0231 100.69 78.8412 90.9285 78.8412 90.9285C78.8412 90.9285 79.0638 88.7393 76.6766 83.9945L66.738 90.9307C66.738 90.9307 57.7887 76.2321 54.8016 74.6057C53.498 73.8959 51.711 73.7961 50.645 73.7476C49.3288 73.6865 48.3844 73.6849 48.3844 73.6849Z" fill="#DEE8F5"/>
<path d="M48.3842 73.6849C48.3842 73.6849 47.2749 88.0781 47.8883 99.3468L51.4094 81.3009L49.72 79.2063L51.8383 77.6044L50.6458 73.7479L48.3842 73.6849Z" fill="white"/>
<path d="M46.4948 76.4703C45.6942 76.4768 44.9101 76.243 44.2439 75.7989C42.8618 74.8857 41.8662 73.0231 41.4414 70.5578C41.0059 68.0387 41.2745 64.26 41.2864 64.0988L42.2286 64.1674C42.2258 64.2055 41.9568 67.9927 42.3722 70.3969C42.7532 72.6031 43.6034 74.2418 44.7654 75.0114C45.1608 75.2635 45.605 75.4291 46.0689 75.4973C46.5328 75.5656 47.0059 75.535 47.4571 75.4075C48.3923 75.1871 49.0419 74.7925 49.3877 74.2314C49.7486 73.6457 49.8068 72.8307 49.5612 71.8089C49.4199 71.2026 49.2006 70.6172 48.9087 70.0672C48.9087 70.0672 49.115 69.9866 49.3675 69.8582C49.5178 69.7824 49.6586 69.6892 49.787 69.5804C50.0826 70.2254 50.3147 70.8978 50.4797 71.5879C50.7861 72.8632 50.6895 73.9181 50.1919 74.727C49.7095 75.5099 48.8621 76.0496 47.6728 76.3273C47.2869 76.4202 46.8916 76.4682 46.4948 76.4703V76.4703Z" fill="#262626"/>
<path d="M61.8696 91.5983C51.4492 91.5983 47.2806 76.4966 47.1084 75.8536L48.0216 75.6086C48.0622 75.7592 52.175 90.6533 61.8706 90.6533C66.594 90.6533 69.6009 88.4421 72.2554 86.491C75.2063 84.322 77.7547 82.4487 81.4919 84.6621L81.0104 85.4749C77.8101 83.5802 75.7152 85.1203 72.815 87.2524C70.1797 89.1887 66.9013 91.5983 61.8696 91.5983Z" fill="#262626"/>
<path d="M82.6525 88.5558C83.9228 88.5558 84.9525 87.526 84.9525 86.2558C84.9525 84.9855 83.9228 83.9558 82.6525 83.9558C81.3823 83.9558 80.3525 84.9855 80.3525 86.2558C80.3525 87.526 81.3823 88.5558 82.6525 88.5558Z" fill="#262626"/>
<path d="M82.6525 87.6408C83.4173 87.6408 84.0374 87.0207 84.0374 86.2559C84.0374 85.491 83.4173 84.871 82.6525 84.871C81.8876 84.871 81.2676 85.491 81.2676 86.2559C81.2676 87.0207 81.8876 87.6408 82.6525 87.6408Z" fill="white"/>
<path d="M41.7435 64.97C42.2057 64.97 42.5805 64.5953 42.5805 64.133C42.5805 63.6708 42.2057 63.296 41.7435 63.296C41.2812 63.296 40.9065 63.6708 40.9065 64.133C40.9065 64.5953 41.2812 64.97 41.7435 64.97Z" fill="#262626"/>
<path d="M119.918 111.316H103.726C102.078 111.314 100.498 110.659 99.3334 109.494C98.1684 108.329 97.5131 106.749 97.5112 105.102V88.9107C97.5131 87.2631 98.1684 85.6835 99.3334 84.5185C100.498 83.3534 102.078 82.6981 103.726 82.6963H119.917C121.564 82.6981 123.144 83.3534 124.309 84.5185C125.474 85.6835 126.129 87.2631 126.131 88.9107V105.102C126.129 106.749 125.474 108.329 124.309 109.494C123.145 110.659 121.565 111.314 119.918 111.316ZM103.726 85.8452C102.913 85.8461 102.134 86.1694 101.559 86.7441C100.984 87.3188 100.661 88.098 100.66 88.9107V105.102C100.661 105.915 100.984 106.694 101.559 107.268C102.134 107.843 102.913 108.166 103.726 108.167H119.917C120.73 108.166 121.509 107.843 122.083 107.268C122.658 106.694 122.981 105.915 122.982 105.102V88.9107C122.981 88.098 122.658 87.3188 122.083 86.7441C121.509 86.1694 120.73 85.8461 119.917 85.8452H103.726Z" fill="#DEE8F5"/>
<path d="M119.918 147.685H103.726C102.078 147.683 100.498 147.028 99.3334 145.863C98.1684 144.698 97.5131 143.118 97.5112 141.47V125.28C97.5131 123.633 98.1684 122.053 99.3334 120.888C100.498 119.723 102.078 119.068 103.726 119.066H119.917C121.564 119.068 123.144 119.723 124.309 120.888C125.474 122.053 126.129 123.633 126.131 125.28V141.472C126.129 143.119 125.474 144.698 124.309 145.863C123.144 147.027 121.565 147.683 119.918 147.685V147.685ZM103.726 122.215C102.913 122.216 102.134 122.539 101.559 123.114C100.984 123.689 100.661 124.468 100.66 125.28V141.472C100.661 142.284 100.985 143.063 101.559 143.637C102.134 144.212 102.913 144.535 103.726 144.536H119.917C120.73 144.535 121.509 144.212 122.083 143.637C122.658 143.062 122.981 142.283 122.982 141.47V125.28C122.981 124.468 122.658 123.689 122.083 123.114C121.509 122.539 120.73 122.216 119.917 122.215H103.726Z" fill="#DEE8F5"/>
<path d="M119.918 184.055H103.726C102.078 184.053 100.498 183.398 99.3334 182.232C98.1684 181.067 97.5131 179.488 97.5112 177.84V161.65C97.5131 160.003 98.1684 158.423 99.3334 157.258C100.498 156.093 102.078 155.438 103.726 155.436H119.917C121.564 155.438 123.144 156.093 124.309 157.258C125.474 158.423 126.129 160.003 126.131 161.65V177.841C126.129 179.489 125.474 181.068 124.309 182.233C123.144 183.397 121.565 184.053 119.918 184.055V184.055ZM103.726 158.585C102.913 158.586 102.134 158.909 101.559 159.484C100.984 160.058 100.661 160.837 100.66 161.65V177.841C100.661 178.654 100.985 179.433 101.559 180.007C102.134 180.582 102.913 180.905 103.726 180.906H119.917C120.73 180.905 121.509 180.582 122.083 180.007C122.658 179.432 122.981 178.653 122.982 177.84V161.65C122.981 160.837 122.658 160.058 122.083 159.484C121.509 158.909 120.73 158.586 119.917 158.585H103.726Z" fill="#DEE8F5"/>
<path d="M108.446 103.253C108.244 103.254 108.044 103.211 107.86 103.128C107.676 103.044 107.512 102.923 107.379 102.771L102.573 97.2766C102.337 96.9922 102.222 96.6269 102.251 96.2586C102.281 95.8902 102.453 95.548 102.731 95.3048C103.01 95.0616 103.372 94.9368 103.741 94.9569C104.11 94.9771 104.457 95.1405 104.707 95.4125L108.6 99.8632L119.096 91.0893C119.237 90.9633 119.403 90.867 119.583 90.8061C119.762 90.7452 119.952 90.7211 120.142 90.735C120.331 90.749 120.515 90.8008 120.684 90.8874C120.853 90.9739 121.003 91.0935 121.124 91.239C121.246 91.3845 121.337 91.553 121.393 91.7344C121.448 91.9158 121.466 92.1065 121.447 92.2952C121.427 92.4838 121.37 92.6666 121.278 92.8327C121.186 92.9988 121.062 93.1448 120.913 93.2621L109.355 102.925C109.1 103.138 108.778 103.254 108.446 103.253V103.253Z" fill="#FD5D76"/>
<path d="M108.446 139.623C108.244 139.624 108.044 139.581 107.86 139.498C107.676 139.414 107.511 139.293 107.378 139.14L102.573 133.647C102.451 133.507 102.357 133.344 102.297 133.168C102.238 132.991 102.213 132.805 102.226 132.619C102.251 132.244 102.424 131.895 102.707 131.647C102.847 131.525 103.01 131.431 103.186 131.371C103.362 131.312 103.549 131.287 103.734 131.3C104.109 131.325 104.459 131.498 104.707 131.781L108.6 136.232L119.096 127.458C119.238 127.337 119.403 127.245 119.581 127.188C119.759 127.131 119.947 127.11 120.133 127.126C120.32 127.142 120.501 127.194 120.667 127.281C120.833 127.367 120.98 127.485 121.1 127.629C121.22 127.772 121.31 127.938 121.366 128.117C121.421 128.295 121.441 128.483 121.424 128.669C121.406 128.856 121.352 129.036 121.265 129.202C121.177 129.367 121.058 129.513 120.913 129.632L109.354 139.294C109.1 139.507 108.778 139.624 108.446 139.623V139.623Z" fill="#FD5D76"/>
<path d="M108.446 175.994C108.244 175.994 108.044 175.951 107.86 175.868C107.676 175.784 107.511 175.663 107.378 175.51L102.573 170.017C102.451 169.877 102.357 169.714 102.297 169.537C102.238 169.361 102.213 169.175 102.226 168.989C102.238 168.803 102.287 168.622 102.37 168.455C102.452 168.288 102.567 168.139 102.707 168.017C102.847 167.894 103.01 167.801 103.186 167.741C103.362 167.682 103.549 167.657 103.734 167.67C103.92 167.682 104.101 167.731 104.268 167.813C104.435 167.896 104.584 168.011 104.707 168.151L108.6 172.602L119.096 163.827C119.237 163.701 119.403 163.605 119.583 163.544C119.762 163.483 119.952 163.459 120.141 163.473C120.331 163.487 120.515 163.539 120.684 163.626C120.853 163.712 121.002 163.832 121.124 163.977C121.246 164.123 121.337 164.291 121.392 164.473C121.448 164.654 121.466 164.845 121.447 165.033C121.427 165.222 121.37 165.405 121.278 165.571C121.186 165.737 121.062 165.883 120.913 166L109.354 175.663C109.1 175.876 108.778 175.994 108.446 175.994V175.994Z" fill="#FD5D76"/>
<g opacity="0.62">
<path opacity="0.62" d="M134.891 95.1192C133.849 95.1192 133.004 95.9642 133.004 97.0065C133.004 98.0488 133.849 98.8938 134.891 98.8938H205.763C206.806 98.8938 207.651 98.0488 207.651 97.0065C207.651 95.9642 206.806 95.1192 205.763 95.1192H134.891Z" fill="#DEE8F5"/>
<path opacity="0.62" d="M134.891 83.5493C133.848 83.5493 133.003 84.3943 133.003 85.4367C133.003 86.479 133.848 87.324 134.891 87.324H205.763C206.805 87.324 207.65 86.479 207.65 85.4367C207.65 84.3943 206.805 83.5493 205.763 83.5493H134.891Z" fill="#DEE8F5"/>
<path opacity="0.62" d="M134.891 106.689C133.848 106.689 133.003 107.534 133.003 108.576C133.003 109.619 133.848 110.464 134.891 110.464H190.018C191.061 110.464 191.906 109.619 191.906 108.576C191.906 107.534 191.061 106.689 190.018 106.689H134.891Z" fill="#DEE8F5"/>
</g>
<g opacity="0.62">
<path opacity="0.62" d="M134.891 131.489C133.849 131.489 133.004 132.334 133.004 133.376C133.004 134.418 133.849 135.263 134.891 135.263H205.763C206.806 135.263 207.651 134.418 207.651 133.376C207.651 132.334 206.806 131.489 205.763 131.489H134.891Z" fill="#DEE8F5"/>
<path opacity="0.62" d="M134.891 119.919C133.848 119.919 133.003 120.764 133.003 121.806C133.003 122.849 133.848 123.694 134.891 123.694H205.763C206.805 123.694 207.65 122.849 207.65 121.806C207.65 120.764 206.805 119.919 205.763 119.919H134.891Z" fill="#DEE8F5"/>
<path opacity="0.62" d="M134.891 143.059C133.848 143.059 133.003 143.904 133.003 144.946C133.003 145.988 133.848 146.833 134.891 146.833H190.018C191.061 146.833 191.906 145.988 191.906 144.946C191.906 143.904 191.061 143.059 190.018 143.059H134.891Z" fill="#DEE8F5"/>
</g>
<g opacity="0.62">
<path opacity="0.62" d="M134.891 167.859C133.849 167.859 133.004 168.704 133.004 169.746C133.004 170.788 133.849 171.633 134.891 171.633H205.763C206.806 171.633 207.651 170.788 207.651 169.746C207.651 168.704 206.806 167.859 205.763 167.859H134.891Z" fill="#DEE8F5"/>
<path opacity="0.62" d="M134.891 156.289C133.848 156.289 133.003 157.134 133.003 158.176C133.003 159.219 133.848 160.064 134.891 160.064H205.763C206.805 160.064 207.65 159.219 207.65 158.176C207.65 157.134 206.805 156.289 205.763 156.289H134.891Z" fill="#DEE8F5"/>
<path opacity="0.62" d="M134.891 179.429C133.848 179.429 133.003 180.273 133.003 181.316C133.003 182.358 133.848 183.203 134.891 183.203H190.018C191.061 183.203 191.906 182.358 191.906 181.316C191.906 180.273 191.061 179.429 190.018 179.429H134.891Z" fill="#DEE8F5"/>
</g>
<path d="M205.722 158.225V186.909C205.723 188.68 205.02 190.38 203.769 191.634C202.517 192.888 200.818 193.593 199.046 193.595H199.035C197.263 193.593 195.565 192.888 194.313 191.634C193.061 190.38 192.358 188.68 192.359 186.909V158.225H205.722Z" fill="#8DDBE0"/>
<path d="M205.722 122.284H192.36C192.114 122.284 191.877 122.382 191.703 122.556C191.529 122.73 191.431 122.966 191.431 123.213C191.431 123.459 191.529 123.696 191.703 123.87C191.877 124.044 192.114 124.142 192.36 124.142V124.142V158.225H205.722V124.14C205.968 124.14 206.204 124.042 206.378 123.868C206.553 123.694 206.651 123.458 206.651 123.211C206.651 122.965 206.553 122.729 206.378 122.554C206.204 122.38 205.968 122.282 205.722 122.282L205.722 122.284Z" fill="#DEE8F5"/>
<path d="M233.188 149.784V186.91C233.189 188.681 232.486 190.381 231.235 191.635C229.983 192.889 228.284 193.594 226.512 193.596H226.502C224.731 193.594 223.032 192.889 221.78 191.635C220.528 190.381 219.826 188.681 219.827 186.91V149.784H233.188Z" fill="#262626"/>
<path d="M233.188 122.284H219.827C219.58 122.284 219.344 122.382 219.17 122.556C218.996 122.73 218.898 122.966 218.898 123.213C218.898 123.459 218.996 123.696 219.17 123.87C219.344 124.044 219.58 124.142 219.827 124.142V124.142V149.785H233.188V124.14C233.435 124.14 233.671 124.042 233.845 123.868C234.02 123.694 234.117 123.458 234.117 123.211C234.117 122.965 234.02 122.729 233.845 122.554C233.671 122.38 233.435 122.282 233.188 122.282L233.188 122.284Z" fill="#DEE8F5"/>
<path d="M260.654 154.004V186.908C260.655 188.68 259.952 190.38 258.7 191.634C257.449 192.888 255.75 193.593 253.978 193.595H253.967C252.195 193.593 250.497 192.888 249.245 191.634C247.993 190.38 247.29 188.68 247.291 186.908V154.004H260.654Z" fill="#0CBC8B"/>
<path d="M260.655 122.284H247.293C247.046 122.284 246.81 122.382 246.636 122.556C246.462 122.73 246.364 122.966 246.364 123.213C246.364 123.459 246.462 123.696 246.636 123.87C246.81 124.044 247.046 124.142 247.293 124.142V124.142V154.006H260.654V124.14C260.901 124.14 261.137 124.042 261.311 123.868C261.485 123.694 261.583 123.458 261.583 123.211C261.583 122.965 261.485 122.729 261.311 122.554C261.137 122.38 260.901 122.282 260.654 122.282L260.655 122.284Z" fill="#DEE8F5"/>
<path d="M277.066 201.835H274.767V137.356C274.767 136.936 274.6 136.534 274.303 136.237C274.007 135.94 273.604 135.774 273.184 135.774H179.83C179.41 135.774 179.008 135.94 178.711 136.237C178.414 136.534 178.247 136.937 178.247 137.356V201.835H175.949C175.529 201.835 175.126 202.001 174.83 202.298C174.533 202.595 174.366 202.998 174.366 203.417C174.366 203.837 174.533 204.24 174.83 204.536C175.126 204.833 175.529 205 175.949 205H183.71C184.13 205 184.533 204.833 184.83 204.536C185.126 204.24 185.293 203.837 185.293 203.417C185.293 202.998 185.126 202.595 184.83 202.298C184.533 202.001 184.13 201.835 183.71 201.835H181.412V138.939H271.602V201.835H269.304C268.884 201.835 268.481 202.001 268.185 202.298C267.888 202.595 267.721 202.998 267.721 203.417C267.721 203.837 267.888 204.24 268.185 204.536C268.481 204.833 268.884 205 269.304 205H277.065C277.485 205 277.888 204.833 278.185 204.536C278.481 204.24 278.648 203.837 278.648 203.417C278.648 202.998 278.481 202.595 278.185 202.298C277.888 202.001 277.485 201.835 277.065 201.835H277.066Z" fill="#9EBCEA"/>
<path d="M134.891 50.6354C133.848 50.6354 133.003 51.4804 133.003 52.5227C133.003 53.5651 133.848 54.41 134.891 54.41L199.465 54.41C200.507 54.41 201.353 53.5651 201.353 52.5227C201.353 51.4804 200.507 50.6354 199.465 50.6354L134.891 50.6354Z" fill="#D7E8F4"/>
<path d="M142.764 61.605C141.721 61.605 140.876 62.45 140.876 63.4923C140.876 64.5347 141.721 65.3796 142.764 65.3796H191.593C192.636 65.3796 193.481 64.5347 193.481 63.4923C193.481 62.45 192.636 61.605 191.593 61.605H142.764Z" fill="#D7E8F4"/>
</g>
<defs>
<clipPath id="clip0_411_189">
<rect width="301.436" height="205" fill="white"/>
</clipPath>
</defs>
</svg>
