<svg width="296" height="230" viewBox="0 0 296 230" fill="none" xmlns="http://www.w3.org/2000/svg">
<g clip-path="url(#clip0_402_423)">
<path d="M239.081 0H201.28V49.1378H239.081V0Z" fill="#F4F4F4"/>
<path d="M239.081 49.1378H240.307V-3.8147e-06H239.081V49.1378Z" fill="#F4F4F4"/>
<path opacity="0.05" d="M239.081 49.1378H240.307V-3.8147e-06H239.081V49.1378Z" fill="#292A2E"/>
<path opacity="0.05" d="M232.195 8.95105H208.166V40.1867H232.195V8.95105Z" fill="#292A2E"/>
<path opacity="0.03" d="M232.195 8.95105H230.942V40.1867H232.195V8.95105Z" fill="#292A2E"/>
<path d="M269.996 61.2214H239.081V92.3791H269.996V61.2214Z" fill="#F4F4F4"/>
<path opacity="0.05" d="M264.365 66.8973H244.713V86.7036H264.365V66.8973Z" fill="#292A2E"/>
<path d="M269.996 92.3792H271.222V61.2215H269.996V92.3792Z" fill="#F4F4F4"/>
<path opacity="0.05" d="M269.996 92.3792H271.222V61.2215H269.996V92.3792Z" fill="#292A2E"/>
<path opacity="0.03" d="M264.365 66.8973H263.112V86.7036H264.365V66.8973Z" fill="#292A2E"/>
<path d="M168.133 5.11481H56.9084V116.193H168.133V5.11481Z" fill="#F4F4F4"/>
<path d="M169.408 5.11481H168.133V116.193H169.408V5.11481Z" fill="#F4F4F4"/>
<path opacity="0.05" d="M169.408 5.11481H168.133V116.193H169.408V5.11481Z" fill="#292A2E"/>
<path opacity="0.05" d="M141.189 81.6565V52.5948H117.352V69.4791H80.4275V99.3746H64.7343V116.193H80.4275H83.4508H162.783V81.6565H141.189Z" fill="#292A2E"/>
<path opacity="0.34" d="M137.77 55.7502H120.411V58.9055H137.77V55.7502Z" fill="#FFFFFA"/>
<path opacity="0.34" d="M137.77 62.2891H120.411V65.4444H137.77V62.2891Z" fill="#FFFFFA"/>
<path opacity="0.34" d="M137.77 68.8278H120.411V71.9831H137.77V68.8278Z" fill="#FFFFFA"/>
<path opacity="0.34" d="M159.705 84.7194H156.505V87.8747H159.705V84.7194Z" fill="#FFFFFA"/>
<path opacity="0.34" d="M159.705 91.258H156.505V94.4133H159.705V91.258Z" fill="#FFFFFA"/>
<path opacity="0.34" d="M159.705 97.797H156.505V100.952H159.705V97.797Z" fill="#FFFFFA"/>
<path opacity="0.34" d="M153.786 84.7194H150.587V87.8747H153.786V84.7194Z" fill="#FFFFFA"/>
<path opacity="0.34" d="M153.786 91.258H150.587V94.4133H153.786V91.258Z" fill="#FFFFFA"/>
<path opacity="0.34" d="M153.786 97.797H150.587V100.952H153.786V97.797Z" fill="#FFFFFA"/>
<path opacity="0.34" d="M148.027 84.7194H144.828V87.8746H148.027V84.7194Z" fill="#FFFFFA"/>
<path opacity="0.34" d="M148.027 91.258H144.828V94.4133H148.027V91.258Z" fill="#FFFFFA"/>
<path opacity="0.34" d="M148.027 97.797H144.828V100.952H148.027V97.797Z" fill="#FFFFFA"/>
<path d="M168.133 60.0305H145.753V5.11481H143.902V60.0305H83.4508V5.11481H81.5997V60.0305H56.9084V61.8792H81.5997V116.193H83.4508V61.8792H143.902V116.193H145.753V61.8792H168.133V60.0305Z" fill="white"/>
<path d="M172.564 116.059H52.4775V119.753H172.564V116.059Z" fill="#F4F4F4"/>
<path opacity="0.1" d="M172.564 116.059H52.4775V119.753H172.564V116.059Z" fill="#292A2E"/>
<path opacity="0.1" d="M174.298 116.059H172.564V119.753H174.298V116.059Z" fill="#292A2E"/>
<path opacity="0.1" d="M174.298 116.059H172.564V119.753H174.298V116.059Z" fill="#292A2E"/>
<path opacity="0.05" d="M226.114 225.168H219.76V229.405H226.114V225.168Z" fill="#292A2E"/>
<path opacity="0.05" d="M266 225.168H259.647V229.405H266V225.168Z" fill="#292A2E"/>
<path d="M271.825 160.604H213.937V225.168H271.825V160.604Z" fill="#F4F4F4"/>
<path opacity="0.03" d="M271.825 160.604H213.937V225.168H271.825V160.604Z" fill="#292A2E"/>
<path d="M256.45 160.604H198.562V225.168H256.45V160.604Z" fill="#F4F4F4"/>
<path opacity="0.05" d="M210.74 225.168H204.386V229.405H210.74V225.168Z" fill="#292A2E"/>
<path opacity="0.05" d="M250.626 225.168H244.273V229.405H250.626V225.168Z" fill="#292A2E"/>
<path opacity="0.7" d="M253.336 164.596H201.677V180.971H253.336V164.596Z" fill="white"/>
<path opacity="0.7" d="M253.336 184.979H201.677V201.354H253.336V184.979Z" fill="white"/>
<path opacity="0.7" d="M253.336 205.362H201.677V221.737H253.336V205.362Z" fill="white"/>
<path opacity="0.05" d="M227.506 175.075C228.773 175.075 229.8 174.049 229.8 172.783C229.8 171.518 228.773 170.492 227.506 170.492C226.239 170.492 225.212 171.518 225.212 172.783C225.212 174.049 226.239 175.075 227.506 175.075Z" fill="#292A2E"/>
<path opacity="0.05" d="M227.506 195.458C228.773 195.458 229.8 194.432 229.8 193.167C229.8 191.901 228.773 190.876 227.506 190.876C226.239 190.876 225.212 191.901 225.212 193.167C225.212 194.432 226.239 195.458 227.506 195.458Z" fill="#292A2E"/>
<path opacity="0.05" d="M227.506 215.841C228.773 215.841 229.8 214.815 229.8 213.55C229.8 212.284 228.773 211.259 227.506 211.259C226.239 211.259 225.212 212.284 225.212 213.55C225.212 214.815 226.239 215.841 227.506 215.841Z" fill="#292A2E"/>
<path d="M213.714 24.3607H138.237C131.993 24.3607 126.932 29.4157 126.932 35.6513V212.845C126.932 219.081 131.993 224.136 138.237 224.136H213.714C219.957 224.136 225.019 219.081 225.019 212.845V35.6513C225.019 29.4157 219.957 24.3607 213.714 24.3607Z" fill="#292A2E"/>
<path d="M213.678 27.8864H138.273C133.985 27.8864 130.509 31.3575 130.509 35.6393V212.594C130.509 216.875 133.985 220.347 138.273 220.347H213.678C217.966 220.347 221.441 216.875 221.441 212.594V35.6393C221.441 31.3575 217.966 27.8864 213.678 27.8864Z" fill="white"/>
<path d="M157.352 26.4284H194.599V30.2773C194.599 30.8241 194.491 31.3655 194.282 31.8706C194.073 32.3758 193.766 32.8348 193.379 33.2215C192.992 33.6081 192.532 33.9149 192.026 34.1241C191.521 34.3334 190.979 34.4411 190.431 34.4411H161.52C160.414 34.4411 159.354 34.0026 158.573 33.222C157.791 32.4414 157.352 31.3828 157.352 30.2789V26.4284Z" fill="#292A2E"/>
<path opacity="0.8" d="M197.544 150.344H154.407C151.866 150.344 149.805 152.401 149.805 154.94V167.281C149.805 169.819 151.866 171.877 154.407 171.877H197.544C200.085 171.877 202.146 169.819 202.146 167.281V154.94C202.146 152.401 200.085 150.344 197.544 150.344Z" fill="#367CFF"/>
<path d="M202.144 167.281V169.396C202.144 169.999 202.025 170.597 201.794 171.155C201.563 171.712 201.224 172.219 200.796 172.646C200.369 173.072 199.862 173.411 199.303 173.642C198.745 173.873 198.146 173.992 197.542 173.992H154.407C153.803 173.992 153.204 173.873 152.646 173.642C152.088 173.411 151.58 173.072 151.153 172.646C150.726 172.219 150.387 171.712 150.155 171.155C149.924 170.597 149.805 169.999 149.805 169.396V167.281C149.805 168.5 150.29 169.668 151.153 170.53C152.016 171.392 153.186 171.876 154.407 171.876H197.542C198.146 171.876 198.745 171.757 199.303 171.526C199.861 171.296 200.369 170.957 200.796 170.53C201.223 170.104 201.562 169.597 201.794 169.04C202.025 168.482 202.144 167.884 202.144 167.281V167.281Z" fill="#367CFF"/>
<path d="M173.099 167.472C172.919 167.472 172.744 167.407 172.607 167.29L167.67 163.065C167.517 162.934 167.423 162.749 167.407 162.549C167.392 162.349 167.457 162.151 167.587 161.999C167.718 161.847 167.903 161.753 168.103 161.737C168.304 161.722 168.502 161.786 168.654 161.917L173.035 165.666L183.23 154.527C183.365 154.379 183.554 154.291 183.754 154.282C183.954 154.273 184.15 154.344 184.298 154.479C184.446 154.614 184.535 154.803 184.544 155.003C184.553 155.203 184.482 155.398 184.346 155.546L173.658 167.225C173.587 167.303 173.501 167.365 173.405 167.407C173.308 167.45 173.204 167.472 173.099 167.472V167.472Z" fill="white"/>
<g opacity="0.5">
<path opacity="0.5" d="M209.174 94.4136C209.174 97.8362 205.844 100.692 204.84 103.779C203.799 106.982 204.777 111.238 202.835 113.903C200.875 116.594 196.504 116.971 193.809 118.93C191.141 120.869 189.442 124.914 186.237 125.953C183.144 126.956 179.403 124.715 175.975 124.715C172.548 124.715 168.806 126.957 165.714 125.953C162.507 124.914 160.809 120.869 158.141 118.93C155.447 116.971 151.076 116.594 149.115 113.903C147.174 111.238 148.152 106.98 147.111 103.779C146.107 100.691 142.776 97.8353 142.776 94.4136C142.776 90.9918 146.107 88.1353 147.111 85.048C148.152 81.8471 147.174 77.5888 149.115 74.9244C151.076 72.2335 155.447 71.8559 158.141 69.8976C160.809 67.9586 162.508 63.913 165.714 62.8737C168.806 61.871 172.548 64.1124 175.975 64.1124C179.402 64.1124 183.145 61.8701 186.237 62.8737C189.443 63.913 191.141 67.9583 193.809 69.8976C196.504 71.8559 200.875 72.2335 202.835 74.9244C204.777 77.5888 203.799 81.8468 204.84 85.0477C205.844 88.1353 209.174 90.9909 209.174 94.4136Z" fill="#367CFF"/>
</g>
<path d="M185.978 114.381H194.501V76.8003H185.978V114.381Z" fill="#367CFF"/>
<path d="M179.169 85.1725C177.506 85.1725 175.88 84.6799 174.497 83.757C173.114 82.8342 172.036 81.5224 171.399 79.9878C170.763 78.4531 170.596 76.7644 170.921 75.1352C171.245 73.5059 172.046 72.0094 173.222 70.8348C174.398 69.6602 175.897 68.8603 177.528 68.5363C179.16 68.2122 180.85 68.3785 182.387 69.0142C183.924 69.6499 185.237 70.7264 186.161 72.1076C187.086 73.4887 187.579 75.1126 187.579 76.7737C187.576 79.0004 186.689 81.1352 185.113 82.7098C183.536 84.2843 181.399 85.17 179.169 85.1725V85.1725ZM179.169 69.2812C177.685 69.2812 176.235 69.7207 175.001 70.5439C173.767 71.3672 172.805 72.5374 172.238 73.9064C171.67 75.2755 171.521 76.782 171.811 78.2354C172.1 79.6888 172.815 81.0238 173.864 82.0716C174.913 83.1195 176.25 83.8331 177.705 84.1222C179.161 84.4113 180.669 84.2629 182.04 83.6958C183.411 83.1287 184.582 82.1684 185.407 80.9363C186.231 79.7041 186.671 78.2555 186.671 76.7737C186.669 74.7872 185.878 72.8828 184.471 71.4781C183.065 70.0734 181.158 69.2832 179.169 69.2809V69.2812Z" fill="#367CFF"/>
<path d="M180.123 76.8003C180.123 76.7913 180.123 76.7825 180.123 76.7737C180.123 74.5462 179.237 72.41 177.66 70.8349C176.083 69.2598 173.944 68.3749 171.713 68.3749C169.483 68.3749 167.344 69.2598 165.767 70.8349C164.189 72.41 163.303 74.5462 163.303 76.7737C163.303 76.7825 163.303 76.7913 163.303 76.8003H157.449V114.381H185.977V76.8003H180.123ZM164.211 76.7737C164.211 74.7866 165.001 72.8809 166.408 71.4758C167.815 70.0707 169.724 69.2813 171.713 69.2813C173.703 69.2813 175.611 70.0707 177.018 71.4758C178.425 72.8809 179.216 74.7866 179.216 76.7737C179.216 76.7825 179.216 76.7913 179.216 76.8003H164.211C164.212 76.7913 164.211 76.7825 164.211 76.7737H164.211Z" fill="white"/>
<path d="M24.3319 223.812L23.6779 227.951C23.6071 228.399 23.3794 228.808 23.0353 229.104C22.6913 229.401 22.2531 229.566 21.7987 229.57L5.13887 229.732C4.89961 229.734 4.66672 229.655 4.47845 229.508C4.29018 229.36 4.15772 229.153 4.10283 228.92C4.04794 228.688 4.07388 228.444 4.1764 228.228C4.27891 228.012 4.4519 227.837 4.66695 227.732L14.6687 222.866L24.3319 223.812Z" fill="#E98862"/>
<path d="M269.664 190.38C269.583 190.38 269.507 190.348 269.45 190.292C269.024 189.866 268.329 182.057 266.457 158.805C265.692 149.29 264.968 140.304 264.44 134.842C264.403 134.452 264.251 134.407 264.202 134.392C263.48 134.178 261.282 135.904 260.055 137.42C260.005 137.482 259.932 137.522 259.852 137.53C259.772 137.539 259.692 137.515 259.63 137.465C259.567 137.415 259.527 137.341 259.519 137.262C259.51 137.182 259.534 137.102 259.585 137.04C260.396 136.038 263.039 133.414 264.376 133.813C264.645 133.894 264.981 134.128 265.043 134.784C265.571 140.25 266.295 149.24 267.061 158.756C268.198 172.886 269.486 188.894 269.909 189.902C269.942 189.947 269.961 190 269.965 190.056C269.97 190.111 269.958 190.167 269.933 190.216C269.908 190.266 269.869 190.307 269.822 190.336C269.774 190.365 269.719 190.38 269.664 190.38V190.38Z" fill="#494949"/>
<path d="M263.663 144.864C268.683 140.845 270.347 134.59 267.379 130.893C264.412 127.196 257.937 127.457 252.917 131.475C247.897 135.494 246.233 141.748 249.201 145.445C252.168 149.143 258.643 148.882 263.663 144.864Z" fill="#0CBC8B"/>
<path opacity="0.2" d="M263.663 144.864C268.683 140.845 270.347 134.59 267.379 130.893C264.412 127.196 257.937 127.457 252.917 131.475C247.897 135.494 246.233 141.748 249.201 145.445C252.168 149.143 258.643 148.882 263.663 144.864Z" fill="white"/>
<path d="M250.608 146.386C250.58 146.386 250.551 146.378 250.527 146.363C250.503 146.347 250.483 146.325 250.471 146.299C250.459 146.273 250.454 146.244 250.458 146.216C250.462 146.187 250.473 146.16 250.492 146.138L264.798 128.909C264.811 128.894 264.826 128.881 264.844 128.872C264.861 128.863 264.881 128.857 264.9 128.855C264.92 128.854 264.94 128.856 264.959 128.861C264.978 128.867 264.996 128.877 265.011 128.89C265.026 128.902 265.039 128.918 265.048 128.935C265.058 128.953 265.063 128.972 265.065 128.992C265.067 129.012 265.065 129.032 265.059 129.051C265.053 129.07 265.044 129.087 265.031 129.102L250.724 146.331C250.71 146.348 250.692 146.362 250.672 146.372C250.652 146.381 250.63 146.386 250.608 146.386V146.386Z" fill="white"/>
<path d="M272.784 186.687C272.75 186.687 272.716 186.681 272.685 186.67C272.609 186.643 272.547 186.588 272.512 186.516C272.477 186.444 272.472 186.361 272.498 186.285L277.872 170.851C278.03 170.398 278.3 169.991 278.656 169.669C279.013 169.346 279.444 169.118 279.912 169.006C280.379 168.893 280.868 168.899 281.332 169.024C281.796 169.148 282.222 169.387 282.57 169.719L285.411 172.43C285.441 172.457 285.465 172.49 285.481 172.526C285.498 172.563 285.508 172.602 285.509 172.642C285.51 172.683 285.504 172.723 285.489 172.76C285.475 172.798 285.453 172.832 285.425 172.861C285.398 172.89 285.364 172.914 285.327 172.93C285.29 172.946 285.25 172.954 285.21 172.955C285.17 172.955 285.13 172.948 285.092 172.932C285.055 172.917 285.021 172.895 284.993 172.866L282.152 170.156C281.877 169.894 281.541 169.705 281.175 169.607C280.808 169.508 280.422 169.504 280.053 169.593C279.684 169.681 279.344 169.861 279.062 170.116C278.781 170.371 278.568 170.692 278.443 171.05L273.07 186.484C273.049 186.543 273.01 186.594 272.959 186.631C272.908 186.667 272.847 186.687 272.784 186.687Z" fill="#494949"/>
<path d="M293.349 180.975C297.069 178.034 296.848 171.566 292.855 166.528C288.862 161.49 282.609 159.79 278.889 162.731C275.169 165.672 275.39 172.14 279.383 177.178C283.376 182.215 289.629 183.915 293.349 180.975Z" fill="#0CBC8B"/>
<path d="M267.222 189.396C267.154 189.396 267.088 189.373 267.035 189.331C266.982 189.289 266.944 189.23 266.928 189.164L257.91 151.507C257.848 151.251 257.717 151.016 257.531 150.829C257.344 150.642 257.109 150.51 256.853 150.447C256.596 150.385 256.327 150.394 256.075 150.475C255.823 150.555 255.599 150.703 255.426 150.903L252.646 154.109C252.62 154.139 252.588 154.163 252.553 154.181C252.517 154.199 252.479 154.21 252.439 154.212C252.399 154.215 252.359 154.21 252.322 154.198C252.284 154.185 252.249 154.165 252.219 154.14C252.189 154.114 252.164 154.082 252.147 154.046C252.129 154.011 252.118 153.972 252.115 153.933C252.112 153.893 252.117 153.853 252.13 153.816C252.142 153.778 252.162 153.743 252.188 153.713L254.968 150.505C255.214 150.221 255.533 150.011 255.891 149.897C256.249 149.783 256.632 149.77 256.997 149.859C257.361 149.948 257.695 150.135 257.96 150.401C258.225 150.667 258.411 151.001 258.499 151.366L267.517 189.023C267.535 189.101 267.522 189.183 267.48 189.251C267.438 189.319 267.371 189.368 267.293 189.387C267.27 189.392 267.246 189.395 267.222 189.396Z" fill="#494949"/>
<path d="M263.896 162.477C264.993 156.146 262.091 150.359 257.416 149.551C252.741 148.744 248.062 153.222 246.966 159.553C245.87 165.884 248.771 171.671 253.446 172.478C258.121 173.286 262.8 168.808 263.896 162.477Z" fill="#0CBC8B"/>
<path d="M269.664 190.38C269.652 190.38 269.639 190.38 269.627 190.378C269.547 190.368 269.475 190.327 269.425 190.264C269.376 190.201 269.354 190.121 269.363 190.041L275.122 143.347C275.185 142.838 275.393 142.359 275.722 141.965C276.052 141.572 276.488 141.282 276.978 141.131C277.468 140.979 277.992 140.972 278.486 141.111C278.98 141.249 279.424 141.527 279.763 141.911L286.345 149.357C286.398 149.417 286.425 149.495 286.42 149.575C286.415 149.655 286.379 149.73 286.319 149.783C286.289 149.809 286.254 149.83 286.217 149.842C286.179 149.855 286.139 149.861 286.1 149.858C286.019 149.853 285.945 149.817 285.891 149.757L279.309 142.311C279.047 142.015 278.704 141.8 278.322 141.693C277.94 141.586 277.536 141.591 277.157 141.708C276.778 141.825 276.441 142.049 276.187 142.353C275.932 142.657 275.771 143.028 275.722 143.421L269.964 190.115C269.955 190.188 269.92 190.256 269.864 190.304C269.809 190.353 269.738 190.38 269.664 190.38V190.38Z" fill="#494949"/>
<path d="M293.096 153.494C295.393 149.347 292.691 143.465 287.061 140.355C281.431 137.245 275.006 138.085 272.709 142.232C270.413 146.378 273.115 152.26 278.744 155.37C284.374 158.48 290.8 157.64 293.096 153.494Z" fill="#0CBC8B"/>
<path opacity="0.2" d="M293.349 180.975C297.069 178.034 296.848 171.566 292.855 166.528C288.862 161.49 282.609 159.79 278.889 162.731C275.169 165.672 275.39 172.14 279.383 177.178C283.376 182.215 289.629 183.915 293.349 180.975Z" fill="white"/>
<path opacity="0.5" d="M263.896 162.477C264.993 156.146 262.091 150.359 257.416 149.551C252.741 148.744 248.062 153.222 246.966 159.553C245.87 165.884 248.771 171.671 253.446 172.478C258.121 173.286 262.8 168.808 263.896 162.477Z" fill="white"/>
<path opacity="0.5" d="M293.096 153.494C295.393 149.347 292.691 143.465 287.061 140.355C281.431 137.245 275.006 138.085 272.709 142.232C270.413 146.378 273.115 152.26 278.744 155.37C284.374 158.48 290.8 157.64 293.096 153.494Z" fill="white"/>
<path d="M277.029 230H262.298L259.857 182.929H279.47L277.029 230Z" fill="#292A2E"/>
<path opacity="0.3" d="M277.029 230H262.298L259.857 182.929H279.47L277.029 230Z" fill="white"/>
<path d="M293.348 181.124C293.326 181.124 293.303 181.119 293.283 181.109C293.262 181.099 293.244 181.085 293.23 181.067L278.77 162.823C278.757 162.807 278.748 162.79 278.743 162.77C278.737 162.751 278.736 162.731 278.738 162.712C278.74 162.692 278.746 162.673 278.756 162.656C278.766 162.638 278.779 162.623 278.794 162.611C278.81 162.598 278.828 162.589 278.847 162.584C278.866 162.578 278.886 162.577 278.906 162.579C278.925 162.581 278.944 162.587 278.962 162.597C278.979 162.607 278.994 162.62 279.007 162.635L293.467 180.879C293.485 180.901 293.496 180.928 293.499 180.956C293.502 180.985 293.497 181.013 293.485 181.039C293.472 181.064 293.453 181.086 293.429 181.101C293.405 181.116 293.377 181.124 293.348 181.124V181.124Z" fill="white"/>
<path d="M292.134 154.955C292.102 154.954 292.071 154.944 292.045 154.924L273.542 141.432C273.526 141.42 273.512 141.405 273.502 141.388C273.491 141.371 273.484 141.353 273.481 141.333C273.478 141.313 273.479 141.293 273.484 141.274C273.488 141.255 273.497 141.237 273.509 141.221C273.52 141.204 273.535 141.191 273.552 141.181C273.569 141.17 273.588 141.163 273.608 141.16C273.627 141.157 273.647 141.158 273.666 141.163C273.686 141.167 273.704 141.176 273.72 141.188L292.224 154.683C292.249 154.702 292.268 154.728 292.277 154.758C292.287 154.788 292.287 154.821 292.277 154.851C292.267 154.881 292.248 154.907 292.222 154.925C292.197 154.944 292.166 154.954 292.134 154.955Z" fill="white"/>
<path d="M252.694 172.281C252.681 172.281 252.668 172.279 252.655 172.276C252.616 172.266 252.583 172.24 252.563 172.206C252.543 172.171 252.538 172.13 252.548 172.091L258.438 150.051C258.449 150.013 258.474 149.98 258.509 149.96C258.543 149.94 258.584 149.934 258.623 149.944C258.662 149.954 258.695 149.979 258.715 150.014C258.735 150.049 258.74 150.09 258.73 150.129L252.842 172.169C252.833 172.201 252.814 172.23 252.787 172.25C252.76 172.271 252.728 172.282 252.694 172.281Z" fill="white"/>
<path d="M43.8196 202.714C43.8196 202.714 43.7071 227.13 61.3996 229.391L78.0564 214.166L88.3833 193.595L49.7295 197.855L43.8196 202.714Z" fill="#262626"/>
<path d="M43.3434 201.384L43.2905 201.398C43.2905 201.398 43.1183 200.363 43.3434 201.384Z" fill="#333333"/>
<path d="M111.552 130.497C111.55 130.486 111.541 130.479 111.535 130.469L111.747 130.159C111.894 129.952 111.965 129.701 111.948 129.448C111.931 129.194 111.827 128.955 111.654 128.769C111.542 128.655 111.407 128.567 111.258 128.512C111.108 128.456 110.948 128.435 110.789 128.448C110.631 128.462 110.477 128.511 110.339 128.591C110.201 128.671 110.083 128.781 109.993 128.912L109.502 129.627C109.499 129.624 109.499 129.619 109.495 129.616C109.491 129.614 109.483 129.616 109.478 129.612C109.568 129.386 109.579 129.136 109.508 128.903C109.437 128.67 109.288 128.468 109.087 128.33C108.591 127.94 107.905 128.305 107.588 128.768L104.663 132.877L104.936 131.45C104.994 131.173 104.945 130.885 104.798 130.643C104.652 130.401 104.419 130.223 104.146 130.146C104.004 130.111 103.857 130.105 103.712 130.129C103.568 130.153 103.43 130.206 103.307 130.285C103.184 130.364 103.079 130.467 102.997 130.588C102.915 130.709 102.859 130.846 102.831 130.989L101.351 138.779C101.178 139.693 101.368 140.638 101.881 141.414C102.394 142.19 103.19 142.736 104.1 142.935V142.935C105.155 143.166 106.255 143.078 107.26 142.68C108.264 142.283 109.126 141.595 109.737 140.705C109.737 140.705 111.945 130.137 111.552 130.497Z" fill="#E98862"/>
<path d="M109.005 118.708L109.894 118.795C109.985 118.799 110.075 118.822 110.158 118.861C110.241 118.901 110.314 118.957 110.375 119.026C110.435 119.095 110.481 119.175 110.51 119.262C110.538 119.349 110.549 119.441 110.541 119.532L108.276 137.823C108.242 138.012 108.138 138.182 107.984 138.298C107.83 138.414 107.637 138.467 107.446 138.447L106.427 138.373L109.005 118.708Z" fill="#292A2E"/>
<path d="M106.589 138.392L104.703 138.249C104.619 138.247 104.536 138.228 104.459 138.193C104.382 138.158 104.314 138.108 104.257 138.045C104.201 137.983 104.158 137.909 104.131 137.829C104.104 137.749 104.094 137.665 104.101 137.581L106.365 119.132C106.396 118.96 106.49 118.806 106.63 118.701C106.77 118.596 106.944 118.548 107.118 118.566L109.005 118.708C109.089 118.71 109.172 118.729 109.249 118.764C109.325 118.8 109.394 118.85 109.45 118.913C109.507 118.975 109.55 119.049 109.577 119.129C109.603 119.208 109.614 119.293 109.606 119.377L107.342 137.825C107.312 137.997 107.218 138.151 107.078 138.257C106.938 138.362 106.763 138.41 106.589 138.392V138.392Z" fill="#292A2E"/>
<path d="M106.397 138.011L104.726 137.874C104.668 137.873 104.611 137.86 104.558 137.836C104.506 137.812 104.459 137.777 104.42 137.734C104.381 137.691 104.352 137.641 104.333 137.586C104.315 137.531 104.308 137.473 104.313 137.415L106.558 119.299C106.579 119.181 106.644 119.075 106.74 119.003C106.836 118.931 106.956 118.898 107.075 118.91L108.724 119.049C108.782 119.05 108.839 119.063 108.891 119.087C108.944 119.111 108.991 119.146 109.03 119.189C109.068 119.232 109.098 119.283 109.116 119.337C109.135 119.392 109.142 119.45 109.137 119.508L106.914 137.623C106.893 137.741 106.828 137.847 106.732 137.919C106.636 137.991 106.516 138.024 106.397 138.011V138.011Z" fill="white"/>
<path d="M108.305 119.658L107.574 119.603C107.543 119.602 107.512 119.595 107.484 119.582C107.456 119.569 107.43 119.551 107.41 119.528C107.389 119.505 107.373 119.477 107.363 119.448C107.353 119.419 107.349 119.387 107.352 119.356L107.421 118.795L108.652 118.888L108.583 119.449C108.572 119.513 108.537 119.57 108.485 119.608C108.434 119.647 108.37 119.665 108.305 119.658V119.658Z" fill="#292A2E"/>
<path d="M105.19 132.458C105.307 132.269 105.479 132.121 105.684 132.034C105.888 131.947 106.115 131.925 106.332 131.972C106.332 131.953 106.338 131.933 106.349 131.917C106.361 131.905 106.375 131.896 106.391 131.891C106.407 131.886 106.424 131.885 106.44 131.889L105.744 131.295C105.535 131.125 105.395 130.885 105.35 130.619C105.304 130.353 105.356 130.08 105.497 129.85C105.643 129.627 105.867 129.467 106.125 129.4C106.383 129.332 106.656 129.363 106.893 129.486C106.893 129.475 106.9 129.466 106.902 129.456L106.616 129.212C106.42 129.05 106.286 128.826 106.236 128.577C106.186 128.328 106.224 128.07 106.344 127.845C106.421 127.706 106.529 127.586 106.658 127.493C106.788 127.401 106.937 127.338 107.094 127.31C107.251 127.281 107.412 127.288 107.566 127.33C107.72 127.371 107.863 127.446 107.984 127.55L108.645 128.112C108.648 128.108 108.645 128.103 108.649 128.1C108.652 128.096 108.66 128.095 108.664 128.092C108.518 127.896 108.443 127.658 108.45 127.414C108.458 127.171 108.548 126.937 108.706 126.751C109.083 126.246 109.841 126.419 110.268 126.783L111.524 128.034C111.718 128.228 111.861 128.465 111.941 128.727C112.02 128.989 112.034 129.266 111.98 129.534C111.518 131.854 110.165 137.887 108.801 136.724L105.443 133.865C105.249 133.693 105.118 133.461 105.072 133.206C105.026 132.95 105.068 132.687 105.19 132.458V132.458Z" fill="#E98862"/>
<path d="M98.5717 138.137L93.6374 164.802L81.0247 145.388L71.3887 156.694L91.4856 184.109L91.6559 184.268C92.6907 185.207 93.9479 185.869 95.3093 186.189C96.6707 186.509 98.0913 186.478 99.4373 186.099C100.783 185.719 102.01 185.004 103.003 184.02C103.996 183.035 104.721 181.815 105.111 180.474L113.388 140.511L98.5717 138.137Z" fill="#367CFF"/>
<path d="M92.9531 167.424C92.9395 167.424 92.9259 167.423 92.9128 167.419C92.8742 167.408 92.8414 167.383 92.8216 167.348C92.8018 167.313 92.7967 167.272 92.8073 167.234L93.4915 164.762C93.5022 164.723 93.5278 164.69 93.5627 164.67C93.5976 164.651 93.6389 164.646 93.6776 164.656C93.7163 164.667 93.7491 164.692 93.7689 164.727C93.7887 164.762 93.7938 164.803 93.7832 164.842L93.0989 167.314C93.0901 167.345 93.071 167.374 93.0447 167.394C93.0184 167.414 92.9862 167.424 92.9531 167.424V167.424Z" fill="#0C0C0C"/>
<path d="M39.7776 121.499C39.7776 121.499 38.9838 128.597 37.2646 131.107C32.3149 138.336 30.6027 146.64 35.03 151.217C39.4573 155.793 68.9431 157.172 71.6273 147.221C73.8871 138.843 69.8918 137.753 69.2226 130.728C68.9201 127.55 67.9938 120.872 67.9938 120.872" fill="#0A0A0A"/>
<path d="M66.4083 142.208C66.3572 142.212 67.6868 151.504 56.8452 152.889C49.3399 153.849 45.0974 146.556 44.928 146.591C45.69 146.258 46.9464 145.688 47.297 145.476C48.6235 144.676 49.6396 143.669 49.5516 141.335C49.5008 139.99 47.7668 133.408 47.611 132.069L59.4762 132.276C59.8882 135.089 60.1012 141.761 64.2257 142.106C64.9103 142.162 65.643 142.193 66.4083 142.208Z" fill="#E98862"/>
<path opacity="0.52" d="M61.222 139.976C60.9269 139.44 60.6914 138.874 60.5198 138.287C60.1155 136.95 59.8589 135.574 59.7545 134.181C57.3846 134.342 55.017 133.836 52.9207 132.721C52.8693 133.541 52.4064 137.173 52.8798 137.847C53.7726 139.118 57.0911 140.821 61.222 139.976Z" fill="#0C0C0C"/>
<path d="M58.212 138.993C53.6304 139.23 47.8094 137.144 46.8586 131.022L46.0007 125.498C45.0496 119.377 47.4981 113.916 53.2695 113.021C59.0409 112.127 64.1255 116.421 65.0767 122.543L65.4566 124.988C65.8214 127.337 66.3862 138.57 58.212 138.993Z" fill="#E98862"/>
<path opacity="0.52" d="M60.306 130.618H60.3172C60.551 130.58 60.7826 130.53 61.0109 130.467C61.3518 130.369 61.7995 130.205 61.752 129.899C61.6979 129.55 60.1566 125.935 59.9808 125.524C59.9732 125.506 59.9622 125.49 59.9483 125.476C59.9345 125.463 59.9181 125.452 59.9001 125.445C59.8821 125.437 59.8628 125.434 59.8434 125.434C59.824 125.434 59.8048 125.438 59.7869 125.446C59.769 125.453 59.7528 125.464 59.7392 125.478C59.7256 125.492 59.7148 125.508 59.7075 125.526C59.7003 125.544 59.6966 125.563 59.6968 125.583C59.697 125.602 59.7009 125.621 59.7085 125.639C60.3662 127.18 61.4229 129.709 61.4595 129.944C61.4177 130.051 60.8511 130.238 60.2709 130.328C60.2331 130.334 60.199 130.354 60.1757 130.384C60.1525 130.414 60.142 130.453 60.1464 130.49C60.1508 130.528 60.1697 130.563 60.1993 130.587C60.2289 130.612 60.2667 130.623 60.3048 130.62L60.306 130.618Z" fill="#0C0C0C"/>
<path opacity="0.52" d="M59.3694 133.216C60.309 133.126 61.2143 132.816 62.0121 132.312C62.0302 132.303 62.0461 132.29 62.059 132.275C62.0719 132.259 62.0814 132.241 62.087 132.222C62.0926 132.202 62.0942 132.182 62.0915 132.162C62.0889 132.142 62.0822 132.123 62.0718 132.105C62.0614 132.088 62.0475 132.073 62.031 132.061C62.0146 132.05 61.9959 132.041 61.9761 132.037C61.9563 132.033 61.9358 132.033 61.916 132.037C61.8962 132.041 61.8774 132.049 61.8609 132.061C60.1365 133.103 58.4524 133.226 56.9922 132.414C56.9629 132.397 56.9326 132.381 56.9014 132.367C56.8651 132.353 56.8246 132.353 56.7887 132.369C56.7527 132.384 56.7244 132.413 56.71 132.449C56.6955 132.485 56.696 132.526 56.7114 132.562C56.7269 132.598 56.7559 132.626 56.7922 132.64C56.8037 132.646 56.8225 132.656 56.8491 132.671C57.6162 133.099 58.4936 133.289 59.3694 133.216V133.216Z" fill="#0C0C0C"/>
<path d="M41.3486 127.26L46.5216 126.489C50.4676 125.044 51.8685 118.351 51.8685 118.351C51.8685 118.351 56.4456 123.111 67.9941 120.872C67.9941 120.872 66.2256 104.833 49.1386 108.914C43.6289 110.23 39.528 115.595 39.7725 122.955C39.9434 128.113 41.3486 127.26 41.3486 127.26Z" fill="#0A0A0A"/>
<path d="M47.5069 132.832C45.7523 133.104 44.0401 131.45 43.7678 129.698C43.4956 127.946 44.7677 126.76 46.5207 126.488L47.6068 127.522L49.014 132.598L47.5069 132.832Z" fill="#E98862"/>
<path d="M61.1276 122.647C61.6471 122.336 62.2406 122.17 62.8462 122.167C63.1442 122.164 63.4411 122.205 63.7268 122.29C64.01 122.372 64.2816 122.49 64.5351 122.641C64.5688 122.661 64.5935 122.693 64.604 122.731C64.6146 122.769 64.6104 122.809 64.5921 122.844C64.5739 122.879 64.5431 122.905 64.5059 122.918C64.4688 122.931 64.4281 122.929 64.3924 122.913L64.3818 122.908C64.1468 122.782 63.8971 122.687 63.6385 122.624C63.3829 122.561 63.1191 122.536 62.8562 122.551C62.3347 122.578 61.8294 122.741 61.3917 123.026L61.3775 123.035C61.3267 123.069 61.2643 123.082 61.2041 123.07C61.1439 123.059 61.0908 123.024 61.0565 122.973C61.0222 122.922 61.0095 122.86 61.0212 122.8C61.0329 122.74 61.068 122.687 61.1188 122.652L61.1276 122.647Z" fill="#0C0C0C"/>
<path d="M56.5067 123.573C56.0039 123.432 55.4727 123.427 54.9672 123.558C54.7113 123.621 54.4665 123.723 54.2411 123.86C54.0132 123.997 53.8034 124.162 53.6168 124.352L53.6083 124.36C53.594 124.374 53.577 124.385 53.5584 124.393C53.5397 124.401 53.5197 124.405 53.4994 124.405C53.4792 124.405 53.4592 124.401 53.4405 124.393C53.4218 124.386 53.4048 124.374 53.3905 124.36C53.3762 124.346 53.3648 124.329 53.357 124.31C53.3493 124.292 53.3452 124.272 53.3452 124.251C53.3452 124.231 53.3491 124.211 53.3569 124.193C53.3646 124.174 53.3759 124.157 53.3902 124.143C53.587 123.923 53.8106 123.73 54.0557 123.566C54.3032 123.4 54.5742 123.272 54.8598 123.187C55.4385 123.009 56.0546 122.99 56.6431 123.132C56.7026 123.147 56.7538 123.185 56.7853 123.237C56.8169 123.29 56.8263 123.353 56.8115 123.412C56.7966 123.471 56.7588 123.522 56.7062 123.554C56.6536 123.585 56.5907 123.595 56.5312 123.58L56.5218 123.577L56.5067 123.573Z" fill="#0C0C0C"/>
<path opacity="0.52" d="M59.5224 134.604C59.6926 134.59 59.8613 134.562 60.0267 134.52C60.0635 134.509 60.0948 134.485 60.114 134.452C60.1331 134.419 60.1385 134.38 60.1292 134.342C60.1198 134.305 60.0964 134.273 60.0638 134.253C60.0312 134.233 59.9921 134.227 59.9547 134.235C58.9595 134.485 58.4119 134.092 58.3883 134.075C58.3728 134.063 58.3553 134.054 58.3365 134.05C58.3178 134.045 58.2983 134.044 58.2791 134.046C58.26 134.049 58.2415 134.056 58.2249 134.065C58.2082 134.075 58.1936 134.088 58.182 134.104C58.1585 134.135 58.1483 134.174 58.1538 134.213C58.1592 134.251 58.1798 134.286 58.211 134.31C58.601 134.556 59.0644 134.66 59.5224 134.604V134.604Z" fill="#0C0C0C"/>
<path d="M46.5346 126.424L46.4883 126.28C53.0831 124.159 51.6991 117.724 51.6843 117.659L51.8319 117.625C51.8467 117.691 53.2601 124.261 46.5346 126.424Z" fill="#0C0C0C"/>
<path opacity="0.1" d="M55.6681 130.913C56.4229 130.857 57.0014 130.364 56.9604 129.811C56.9193 129.258 56.2741 128.855 55.5193 128.911C54.7646 128.967 54.186 129.46 54.2271 130.013C54.2682 130.566 54.9133 130.969 55.6681 130.913Z" fill="#0C0C0C"/>
<path opacity="0.1" d="M63.6993 129.069C63.7419 129.621 64.3869 130.023 65.1417 129.968C65.2721 129.959 65.4011 129.935 65.5268 129.899C65.5909 129.246 65.6214 128.616 65.6281 128.032C65.4223 127.971 65.2068 127.949 64.9928 127.966C64.2371 128.021 63.6587 128.515 63.6993 129.069Z" fill="#0C0C0C"/>
<path d="M63.6972 125.432C64.0945 125.432 64.4165 125.11 64.4165 124.714C64.4165 124.317 64.0945 123.995 63.6972 123.995C63.2999 123.995 62.9778 124.317 62.9778 124.714C62.9778 125.11 63.2999 125.432 63.6972 125.432Z" fill="#0C0C0C"/>
<path d="M56.5759 126.15C56.9732 126.15 57.2953 125.829 57.2953 125.432C57.2953 125.035 56.9732 124.714 56.5759 124.714C56.1786 124.714 55.8566 125.035 55.8566 125.432C55.8566 125.829 56.1786 126.15 56.5759 126.15Z" fill="#0C0C0C"/>
<path d="M83.8208 159.701C84.2942 163.715 87.7093 188.668 88.3833 193.594L43.8196 202.714C42.6685 198.382 37.605 179.446 34.8915 171.069C32.3016 163.075 29.8543 159.009 30.4817 155.129C31.2138 150.601 37.2015 148.788 41.0809 147.431C43.4499 146.604 47.0659 145.619 47.0659 145.619C47.0659 145.619 48.6625 151.824 56.1328 150.659C66.3022 149.072 64.1743 142.117 64.2242 142.107C65.8557 141.775 73.9954 141.221 76.5526 142.104C83.5207 144.506 82.8189 151.193 83.8208 159.701Z" fill="#367CFF"/>
<path d="M84.2841 162.399L83.9846 162.442L86.2426 177.945L86.5421 177.902L84.2841 162.399Z" fill="#0C0C0C"/>
<path d="M26.6749 226.429L12.103 222.379C18.8446 198.187 29.7889 158.397 30.4572 154.618C30.4016 154.975 30.3776 155.337 30.3855 155.699L45.5097 155.485C45.5309 156.973 45.5436 157.872 35.9739 192.782C31.3796 209.543 26.7214 226.262 26.6749 226.429Z" fill="#367CFF"/>
<path d="M41.534 170.027L38.4794 183.768L38.7747 183.833L41.8293 170.092L41.534 170.027Z" fill="#0C0C0C"/>
<path d="M74.0008 197.666C74.0008 197.666 113.737 177.165 124.743 173.373C127.595 172.391 132.804 171.487 137.27 174.094C150.592 181.873 185.77 213.546 185.77 213.546L177.224 226.299L130.752 193.062C130.752 193.062 108.485 208.927 88.3833 215.904L68.093 213.51L74.0008 197.666Z" fill="#262626"/>
<path d="M190.994 217.236C190.994 217.236 198.111 216.08 198.701 209.475C199.29 202.869 204.527 204.46 204.527 204.46L203.781 229.747L191.129 229.375L190.994 217.236Z" fill="#367CFF"/>
<path d="M61.3996 229.39C61.3996 229.39 59.2744 229.248 64.0998 229.406C82.0994 229.999 195.119 229.703 195.119 229.703L195.176 212.771L61.4377 203.293L61.3996 229.39Z" fill="#262626"/>
<path d="M109.475 206.793C109.469 206.793 109.462 206.793 109.456 206.793L96.274 205.133C96.2342 205.128 96.1981 205.108 96.1735 205.076C96.149 205.044 96.138 205.004 96.1431 204.965C96.1452 204.945 96.1513 204.926 96.1611 204.908C96.1708 204.891 96.1839 204.876 96.1997 204.863C96.2154 204.851 96.2335 204.842 96.2527 204.837C96.272 204.832 96.2921 204.831 96.3119 204.834L109.494 206.493C109.534 206.496 109.572 206.514 109.598 206.544C109.625 206.574 109.638 206.613 109.636 206.653C109.633 206.694 109.615 206.731 109.585 206.758C109.555 206.784 109.515 206.798 109.475 206.795V206.793Z" fill="white"/>
<path d="M184.614 212.058H184.603L152.93 209.817C152.89 209.814 152.853 209.795 152.827 209.765C152.8 209.735 152.787 209.695 152.79 209.655C152.793 209.615 152.811 209.578 152.841 209.552C152.872 209.526 152.911 209.512 152.951 209.515L184.624 211.756C184.644 211.757 184.664 211.761 184.682 211.77C184.7 211.778 184.716 211.79 184.73 211.804C184.743 211.819 184.754 211.836 184.761 211.854C184.768 211.873 184.771 211.893 184.77 211.912C184.77 211.932 184.765 211.952 184.757 211.97C184.749 211.988 184.737 212.004 184.722 212.018C184.708 212.031 184.691 212.042 184.672 212.049C184.654 212.056 184.634 212.059 184.614 212.058L184.614 212.058Z" fill="white"/>
<path d="M288.376 230H0.222986C0.193036 230.001 0.163172 229.996 0.135177 229.985C0.107182 229.975 0.0816317 229.959 0.0600531 229.938C0.0384745 229.917 0.0213105 229.892 0.00958707 229.865C-0.0021364 229.837 -0.00817871 229.807 -0.00817871 229.778C-0.00817871 229.748 -0.0021364 229.718 0.00958707 229.69C0.0213105 229.663 0.0384745 229.638 0.0600531 229.617C0.0816317 229.596 0.107182 229.58 0.135177 229.57C0.163172 229.559 0.193036 229.554 0.222986 229.555H288.376C288.406 229.554 288.436 229.559 288.464 229.57C288.492 229.58 288.517 229.596 288.539 229.617C288.561 229.638 288.578 229.663 288.589 229.69C288.601 229.718 288.607 229.748 288.607 229.778C288.607 229.807 288.601 229.837 288.589 229.865C288.578 229.892 288.561 229.917 288.539 229.938C288.517 229.959 288.492 229.975 288.464 229.985C288.436 229.996 288.406 230.001 288.376 230V230Z" fill="#292A2E"/>
</g>
<defs>
<clipPath id="clip0_402_423">
<rect width="296" height="230" fill="white"/>
</clipPath>
</defs>
</svg>
