<svg width="267" height="202" viewBox="0 0 267 202" fill="none" xmlns="http://www.w3.org/2000/svg">
<g clip-path="url(#clip0_402_257)">
<path d="M80.5323 21.2693C80.5323 11.2383 75.3702 3.21301 65.4486 3.21301C56.4961 3.21301 50.8245 11.3563 50.8245 21.2693" fill="#C1D8ED"/>
<path d="M65.449 3.21545C75.3612 3.21545 80.5159 11.2269 80.5322 21.2433C80.5405 21.3157 80.5443 21.3885 80.5436 21.4614V117.378C80.5323 119.756 80.9914 122.113 81.8945 124.314C82.7975 126.514 84.1268 128.515 85.8059 130.201C87.4851 131.886 89.481 133.224 91.679 134.137C93.8771 135.049 96.2339 135.519 98.6142 135.519C100.995 135.519 103.351 135.049 105.549 134.137C107.747 133.224 109.743 131.886 111.423 130.201C113.102 128.515 114.431 126.514 115.334 124.314C116.237 122.113 116.696 119.756 116.685 117.378H174.24V23.2763C174.24 12.5363 168.035 3.68434 157.287 3.21545H65.449Z" fill="#D7E8F4"/>
<path d="M98.6149 135.433H174.24C176.613 135.433 178.963 134.966 181.156 134.058C183.348 133.151 185.34 131.821 187.018 130.144C188.696 128.468 190.028 126.477 190.936 124.287C191.844 122.096 192.311 119.748 192.311 117.377H116.686C116.696 119.751 116.235 122.103 115.33 124.298C114.426 126.493 113.095 128.488 111.415 130.166C109.735 131.845 107.739 133.175 105.542 134.079C103.345 134.982 100.991 135.443 98.6149 135.433V135.433Z" fill="#C1D8ED"/>
<path d="M108.177 42.0197L146.97 42.0197C148.72 42.0197 150.138 40.6028 150.138 38.8549C150.138 37.107 148.72 35.6901 146.97 35.6901L108.177 35.6901C106.427 35.6901 105.009 37.107 105.009 38.8549C105.009 40.6028 106.427 42.0197 108.177 42.0197Z" fill="#FAFBFC"/>
<path d="M158.053 57.4312H97.0942C96.3489 57.4312 95.7446 58.0349 95.7446 58.7796V58.78C95.7446 59.5248 96.3489 60.1285 97.0942 60.1285H158.053C158.798 60.1285 159.403 59.5248 159.403 58.78V58.7796C159.403 58.0349 158.798 57.4312 158.053 57.4312Z" fill="#FAFBFC"/>
<path d="M158.053 50.9542H97.0942C96.3489 50.9542 95.7446 51.558 95.7446 52.3027V52.3031C95.7446 53.0478 96.3489 53.6516 97.0942 53.6516H158.053C158.798 53.6516 159.403 53.0478 159.403 52.3031V52.3027C159.403 51.558 158.798 50.9542 158.053 50.9542Z" fill="#FAFBFC"/>
<path d="M158.053 63.9085H97.0942C96.3489 63.9085 95.7446 64.5122 95.7446 65.257V65.2574C95.7446 66.0021 96.3489 66.6058 97.0942 66.6058H158.053C158.798 66.6058 159.403 66.0021 159.403 65.2574V65.257C159.403 64.5122 158.798 63.9085 158.053 63.9085Z" fill="#FAFBFC"/>
<path d="M158.053 70.3859H97.0942C96.3489 70.3859 95.7446 70.9896 95.7446 71.7343V71.7347C95.7446 72.4795 96.3489 73.0832 97.0942 73.0832H158.053C158.798 73.0832 159.403 72.4795 159.403 71.7347V71.7343C159.403 70.9896 158.798 70.3859 158.053 70.3859Z" fill="#FAFBFC"/>
<path d="M158.053 76.8632H97.0942C96.3489 76.8632 95.7446 77.4669 95.7446 78.2116V78.212C95.7446 78.9568 96.3489 79.5605 97.0942 79.5605H158.053C158.798 79.5605 159.403 78.9568 159.403 78.212V78.2116C159.403 77.4669 158.798 76.8632 158.053 76.8632Z" fill="#FAFBFC"/>
<path d="M158.053 89.8175H97.0942C96.3489 89.8175 95.7446 90.4212 95.7446 91.166V91.1664C95.7446 91.9111 96.3489 92.5148 97.0942 92.5148H158.053C158.798 92.5148 159.403 91.9111 159.403 91.1664V91.166C159.403 90.4212 158.798 89.8175 158.053 89.8175Z" fill="#FAFBFC"/>
<path d="M158.053 83.3405H97.0942C96.3489 83.3405 95.7446 83.9442 95.7446 84.689V84.6894C95.7446 85.4341 96.3489 86.0378 97.0942 86.0378H158.053C158.798 86.0378 159.403 85.4341 159.403 84.6894V84.689C159.403 83.9442 158.798 83.3405 158.053 83.3405Z" fill="#FAFBFC"/>
<path d="M139.721 96.2948H115.426C114.681 96.2948 114.077 96.8985 114.077 97.6433V97.6437C114.077 98.3884 114.681 98.9921 115.426 98.9921H139.721C140.466 98.9921 141.071 98.3884 141.071 97.6437V97.6433C141.071 96.8985 140.466 96.2948 139.721 96.2948Z" fill="#FAFBFC"/>
<path d="M43.217 16.0187C43.3393 17.5121 41.7815 18.9025 41.5249 20.31C41.2593 21.7663 42.2117 23.6158 41.5901 24.9223C40.9599 26.2476 38.9166 26.6774 37.9719 27.7882C37.0272 28.8989 36.9315 30.9829 35.7241 31.8177C34.5338 32.6411 32.5532 31.9996 31.158 32.4962C29.8093 32.9761 28.687 34.7348 27.192 34.8569C25.697 34.979 24.3059 33.4222 22.8972 33.1658C21.4397 32.9004 19.5886 33.852 18.281 33.2309C16.9547 32.6012 16.5245 30.5596 15.4128 29.6157C14.3011 28.6718 12.2155 28.5762 11.38 27.3698C10.5559 26.1804 11.1979 24.2015 10.7009 22.8075C10.2206 21.4598 8.46044 20.3385 8.33824 18.8447C8.21603 17.3509 9.77417 15.9609 10.0308 14.5535C10.2964 13.0971 9.344 11.2476 9.96563 9.94109C10.5958 8.61583 12.6391 8.18601 13.5838 7.07525C14.5285 5.96449 14.6242 3.88054 15.8316 3.04574C17.0219 2.22233 19.0025 2.8638 20.3977 2.36723C21.7464 1.88735 22.8687 0.128612 24.3637 0.00650586C25.8587 -0.115601 27.2498 1.44126 28.6585 1.69768C30.116 1.96306 31.967 1.01144 33.2747 1.63256C34.601 2.26222 35.0328 4.30384 36.1429 5.24772C37.2529 6.19161 39.3402 6.28726 40.1757 7.49367C40.9998 8.68299 40.3578 10.6619 40.8548 12.056C41.3351 13.4036 43.0961 14.525 43.217 16.0187Z" fill="#0F1011"/>
<path d="M20.3634 32.2508C21.17 30.8873 22.0336 28.2457 21.6344 23.3411L28.1439 22.1404C28.1439 22.1404 27.4107 29.7924 30.6736 32.2508H20.3634Z" fill="#E98862"/>
<path opacity="0.15" d="M29.3636 30.6601L23.9608 26.5228L28.2071 26.4821C28.3287 27.9346 28.721 29.3516 29.3636 30.6601V30.6601Z" fill="black"/>
<path d="M17.9445 20.0153C18.3926 22.6161 19.811 25.0794 22.1057 25.9216C24.607 26.916 27.3138 27.2839 29.9901 26.9933C37.1152 26.4157 35.7204 10.228 32.3405 7.08216C28.9607 3.93629 19.0322 5.91726 17.8199 11.1752C17.1929 13.8929 17.5164 17.5398 17.9445 20.0153Z" fill="#E98862"/>
<path d="M28.1387 18.0213C28.4647 18.0213 28.729 17.7572 28.729 17.4315C28.729 17.1058 28.4647 16.8417 28.1387 16.8417C27.8127 16.8417 27.5485 17.1058 27.5485 17.4315C27.5485 17.7572 27.8127 18.0213 28.1387 18.0213Z" fill="#0F1011"/>
<path d="M32.7956 17.644C33.1216 17.644 33.3858 17.38 33.3858 17.0543C33.3858 16.7285 33.1216 16.4645 32.7956 16.4645C32.4696 16.4645 32.2053 16.7285 32.2053 17.0543C32.2053 17.38 32.4696 17.644 32.7956 17.644Z" fill="#0F1011"/>
<path d="M33.8198 15.7986H33.8161L32.2527 15.7774C32.181 15.7742 32.1133 15.7434 32.0639 15.6914C32.0144 15.6395 31.9871 15.5704 31.9876 15.4987C31.988 15.427 32.0163 15.3582 32.0664 15.3069C32.1165 15.2556 32.1846 15.2257 32.2563 15.2234H32.26L33.8234 15.2442C33.897 15.2447 33.9674 15.2744 34.0191 15.3267C34.0707 15.379 34.0995 15.4497 34.099 15.5232C34.0985 15.5967 34.0688 15.667 34.0165 15.7187C33.9641 15.7703 33.8933 15.7991 33.8198 15.7986V15.7986Z" fill="#0F1011"/>
<path d="M26.8653 16.3623C26.7975 16.362 26.7321 16.337 26.6816 16.2918C26.631 16.2467 26.5987 16.1846 26.5909 16.1173C26.583 16.05 26.6001 15.9822 26.6388 15.9266C26.6776 15.871 26.7354 15.8316 26.8013 15.8157L28.3432 15.4465C28.379 15.4368 28.4164 15.4344 28.4532 15.4394C28.49 15.4445 28.5253 15.4568 28.5573 15.4757C28.5892 15.4947 28.617 15.5198 28.639 15.5497C28.661 15.5795 28.6768 15.6135 28.6854 15.6495C28.6941 15.6856 28.6954 15.723 28.6893 15.7596C28.6832 15.7962 28.6698 15.8312 28.6499 15.8625C28.6301 15.8938 28.6041 15.9208 28.5736 15.9419C28.5431 15.963 28.5087 15.9778 28.4723 15.9854L26.9305 16.3546C26.9091 16.3597 26.8873 16.3623 26.8653 16.3623Z" fill="#0F1011"/>
<path d="M28.4076 22.0769C28.4076 22.0769 30.5861 22.3085 32.1145 21.7765C32.1145 21.7765 32.1011 23.2104 30.3772 23.35C28.6532 23.4896 28.4076 22.0769 28.4076 22.0769Z" fill="#F8FCFF"/>
<path d="M22.7444 13.2827C23.172 19.3775 22.5006 25.4994 20.7622 31.357C20.7622 31.357 15.7953 22.7993 15.027 15.6744C14.3068 8.99518 19.2363 5.05602 22.5648 4.31443C35.2137 1.5015 36.1241 10.7336 36.1241 10.7336C33.8197 15.5214 21.3753 15.5002 21.3753 15.5002" fill="#0F1011"/>
<path d="M25.156 19.9709C25.2017 20.6275 24.9865 21.2757 24.5571 21.7747C24.1276 22.2738 23.5185 22.5835 22.8619 22.6367C22.2053 22.6899 21.5543 22.4823 21.0499 22.0589C20.5456 21.6355 20.2287 21.0305 20.1679 20.3751C20.1356 20.0468 20.1698 19.7153 20.2685 19.4004C20.3671 19.0856 20.5281 18.7938 20.7419 18.5424C20.9558 18.291 21.2181 18.0852 21.5132 17.9372C21.8083 17.7892 22.1302 17.7021 22.4597 17.681C24.2431 17.624 25.0444 18.5948 25.156 19.9709Z" fill="#E98862"/>
<g opacity="0.15">
<path opacity="0.15" d="M30.7555 20.7052C30.7068 20.7051 30.6596 20.6876 30.6227 20.6557C30.5858 20.6239 30.5616 20.5799 30.5544 20.5317C30.5472 20.4835 30.5575 20.4344 30.5835 20.3931C30.6095 20.3519 30.6494 20.3214 30.696 20.3071L31.8965 19.9408L31.059 18.0717C31.0369 18.0225 31.0353 17.9664 31.0546 17.916C31.0738 17.8655 31.1123 17.8248 31.1617 17.8027C31.211 17.7806 31.2671 17.779 31.3176 17.7983C31.3681 17.8175 31.4088 17.856 31.4309 17.9053L32.3634 19.9852C32.3751 20.0115 32.3812 20.04 32.3811 20.0688C32.381 20.0977 32.3748 20.1261 32.3628 20.1524C32.3509 20.1786 32.3335 20.202 32.3118 20.2211C32.2901 20.2401 32.2647 20.2543 32.2371 20.2627L30.8158 20.6974C30.7962 20.703 30.7759 20.7056 30.7555 20.7052V20.7052Z" fill="black"/>
</g>
<path d="M42.0862 88.8834C50.213 124.656 57.5719 160.668 63.3792 196.893L55.2157 198.571C46.2412 162.998 38.7756 127.006 32.1112 90.9335L42.0862 88.8834Z" fill="#E98862"/>
<path d="M25.2875 91.0992C26.0338 126.637 25.9801 162.255 24.3624 197.769H16.0283C14.4115 162.256 14.3581 126.637 15.1036 91.0992H25.2875Z" fill="#E98862"/>
<path d="M35.1453 201.052C35.3753 201.051 35.6027 201.003 35.8131 200.91C36.0236 200.817 36.2126 200.682 36.3684 200.513C36.5242 200.344 36.6434 200.144 36.7187 199.927C36.7939 199.71 36.8235 199.479 36.8057 199.25V199.25C36.7811 198.932 36.6661 198.628 36.4742 198.373C36.2823 198.119 36.0215 197.924 35.7225 197.813L25.7659 194.481C25.5729 194.417 25.3685 194.395 25.1665 194.418C24.9644 194.44 24.7697 194.506 24.5955 194.611C23.2268 195.559 21.5895 196.044 19.9243 195.994C18.6273 195.902 17.3822 195.448 16.331 194.683C16.2387 194.607 16.1267 194.559 16.0081 194.545C15.8895 194.53 15.7692 194.55 15.6613 194.601C15.5533 194.652 15.4622 194.733 15.3985 194.834C15.3348 194.935 15.3012 195.052 15.3016 195.171V200.036C15.3016 200.18 15.3299 200.322 15.385 200.454C15.4401 200.587 15.5208 200.707 15.6226 200.809C15.7244 200.91 15.8452 200.99 15.9781 201.045C16.111 201.099 16.2534 201.127 16.397 201.126L35.1453 201.052Z" fill="#C1D8ED"/>
<path d="M73.3281 201.052C73.5582 201.051 73.7856 201.003 73.9961 200.91C74.2065 200.817 74.3956 200.682 74.5514 200.513C74.7072 200.344 74.8265 200.144 74.9017 199.927C74.9769 199.71 75.0065 199.479 74.9885 199.25V199.25C74.964 198.932 74.849 198.628 74.6572 198.373C74.4653 198.119 74.2046 197.924 73.9058 197.813L63.9487 194.481C63.7559 194.417 63.5515 194.395 63.3495 194.418C63.1476 194.44 62.9529 194.506 62.7788 194.611C61.4099 195.559 59.7725 196.044 58.1072 195.994C56.8102 195.902 55.5653 195.448 54.5143 194.683C54.4219 194.607 54.3099 194.559 54.1913 194.545C54.0727 194.53 53.9524 194.55 53.8444 194.601C53.7365 194.652 53.6453 194.733 53.5816 194.834C53.5179 194.935 53.4842 195.052 53.4845 195.171V200.036C53.4845 200.18 53.5129 200.322 53.568 200.454C53.6231 200.587 53.7038 200.707 53.8056 200.808C53.9074 200.91 54.0282 200.99 54.161 201.044C54.2939 201.099 54.4362 201.127 54.5799 201.126L73.3281 201.052Z" fill="#C1D8ED"/>
<path d="M9.93954 75.7561C9.93954 75.7561 5.31195 96.4617 5.31195 113.875C5.31195 131.289 0 158.259 0 158.259C0 158.259 15.0588 155.825 25.2741 158.259C42.8757 162.452 58.6596 153.321 58.6596 153.321L40.9313 77.6675L9.93954 75.7561Z" fill="#262626"/>
<path d="M90.0466 56.3689C90.0466 56.3689 93.3906 54.7453 95.9019 55.3684C98.4133 55.9916 97.2368 57.0714 95.409 57.4556C93.5812 57.8399 89.5663 58.4646 89.5663 58.4646" fill="#E98862"/>
<path d="M91.9998 56.2912C91.9998 56.2912 98.199 55.6399 98.2634 57.1304C98.2634 57.1304 98.5351 61.7278 97.6931 62.4388C96.4217 63.5117 90.1248 62.6716 90.1248 62.6716L91.9998 56.2912Z" fill="#E98862"/>
<path d="M75.6118 63.8894H51.3826C50.6652 63.8894 49.9594 63.7091 49.3301 63.3651C48.7007 63.0212 48.1681 62.5246 47.7811 61.9211L32.4718 38.0419L39.6767 33.4316L53.7241 55.342H75.6135L75.6118 63.8894Z" fill="#367CFF"/>
<path d="M42.8948 78.4563C41.188 82.3759 7.65022 84.004 7.20212 77.1091C6.91697 72.721 10.7869 68.8913 10.7869 60.3398C10.7869 51.7883 2.91346 40.8675 9.32853 34.4569C11.1902 32.5972 14.4042 31.3965 18.323 31.3924C18.6163 33.6754 32.4909 33.6839 32.5968 31.4453C33.1264 31.4535 33.5378 31.4612 33.7945 31.4738C47.3106 32.0558 41.3713 47.425 41.241 58.7158C41.0829 71.9277 44.6554 74.4187 42.8948 78.4563Z" fill="#367CFF"/>
<path d="M32.5977 31.4453C32.4918 33.6839 31.2738 36.9763 27.5139 37.225C22.5033 37.5547 18.6172 33.6754 18.3239 31.3924H18.3361C23.2692 31.3924 29.7217 31.4005 32.5977 31.4453Z" fill="#E98862"/>
<path d="M72.0544 84.037C85.5531 84.037 96.4959 73.1032 96.4959 59.6157C96.4959 46.1282 85.5531 35.1944 72.0544 35.1944C58.5557 35.1944 47.6129 46.1282 47.6129 59.6157C47.6129 73.1032 58.5557 84.037 72.0544 84.037Z" fill="#0CBC8B"/>
<g opacity="0.29">
<path opacity="0.29" d="M72.0544 75.4472C80.8052 75.4472 87.8991 68.3592 87.8991 59.6157C87.8991 50.8722 80.8052 43.7842 72.0544 43.7842C63.3037 43.7842 56.2098 50.8722 56.2098 59.6157C56.2098 68.3592 63.3037 75.4472 72.0544 75.4472Z" fill="white"/>
</g>
<path d="M66.8683 65.2708L68.3462 62.9805C69.5177 63.876 70.5422 64.3351 71.6323 64.3351C72.9383 64.3351 73.5131 63.7938 73.5131 62.7457C73.5131 60.3764 67.4296 60.4191 67.4296 56.2638C67.4296 53.5926 69.2815 51.8912 72.2018 51.8912C73.0312 51.8793 73.8532 52.0478 74.6108 52.3852C75.3684 52.7226 76.0435 53.2207 76.5891 53.8449L74.8937 55.7852C74.0561 55.0241 73.3457 54.6231 72.3835 54.6231C71.2747 54.6231 70.6726 55.0709 70.6726 56.1043C70.6726 58.3022 76.7561 58.1085 76.7561 62.51C76.7561 65.1556 75.0044 67.0687 71.6315 67.0687C69.8852 67.0289 68.2048 66.3946 66.8683 65.2708V65.2708ZM70.9215 49.6343H73.1697V52.9507H70.9211L70.9215 49.6343ZM70.9215 65.6844H73.1697V69.3231H70.9211L70.9215 65.6844Z" fill="white"/>
<path d="M97.691 62.4421C97.5768 62.5329 97.4492 62.6054 97.3126 62.657C96.5818 62.8076 94.7401 62.3672 94.4448 61.8568C93.9641 61.026 94.2623 58.0247 94.6864 56.9355C95.0844 55.9179 97.0666 56.3441 97.3269 56.3925C97.3349 56.3954 97.3433 56.3975 97.3517 56.399C97.8923 56.5472 98.2479 56.7784 98.263 57.1337C98.263 57.1337 98.5359 61.729 97.691 62.4421Z" fill="#E98862"/>
<path d="M43.7242 65.2167C43.7242 65.2167 44.7056 59.8628 48.4964 60.7944C50.888 61.3826 57.8388 60.3333 57.9443 63.4018C58.036 66.0645 51.508 66.7744 49.349 66.5526C47.4112 66.3535 43.7242 65.2167 43.7242 65.2167Z" fill="#E98862"/>
<path d="M47.1082 60.7354C47.1082 60.7354 52.7472 59.9043 54.0068 60.4395C55.1221 60.9129 52.3773 62.3932 52.3773 62.3932L47.1082 60.7354Z" fill="#E98862"/>
<path d="M48.912 68.19L23.7047 67.4215C22.9179 67.3976 22.1516 67.1652 21.4844 66.748C20.8171 66.3308 20.2728 65.7439 19.9073 65.0474L7.46167 41.3363L15.3278 37.2144L26.5684 58.6299L49.1829 59.3194L48.912 68.19Z" fill="#367CFF"/>
<path d="M191.842 197.596L200.337 196.587C199.954 193.374 199.522 189.515 199.492 188.882C199.492 188.923 199.492 188.957 199.492 188.982H190.938C190.939 189.239 190.939 190.018 191.842 197.596Z" fill="#E98862"/>
<path d="M225.928 198.618L234.482 198.59C234.482 198.59 234.454 189.764 234.454 188.982H225.899C225.899 189.767 225.928 198.618 225.928 198.618Z" fill="#E98862"/>
<path d="M188.686 194.641C189.393 176.728 189.437 157.915 189.658 139.955C192.599 120.583 194.147 99.3369 197.778 80.1018L197.887 80.1336L198.206 77.9646L229.196 76.0516L230.286 96.2806C231.846 123.38 234.862 166.946 236.687 194.409L221.668 195.68C218.985 168.67 215.019 125.642 212.595 99.021C209.935 112.585 207.02 127.861 204.658 141.587C204.141 159.12 203.709 177.392 203.756 194.897L188.686 194.641Z" fill="#262626"/>
<path d="M215.528 201.923C215.298 201.922 215.071 201.874 214.86 201.781C214.65 201.688 214.461 201.553 214.305 201.384C214.149 201.215 214.03 201.016 213.955 200.798C213.88 200.581 213.85 200.351 213.868 200.122C213.893 199.804 214.008 199.5 214.2 199.245C214.392 198.991 214.652 198.797 214.951 198.685L224.908 195.353C225.101 195.289 225.305 195.268 225.507 195.29C225.709 195.313 225.904 195.378 226.078 195.483C227.447 196.432 229.084 196.917 230.749 196.867C232.046 196.775 233.291 196.32 234.343 195.556C234.435 195.48 234.547 195.432 234.665 195.417C234.784 195.403 234.904 195.422 235.012 195.473C235.12 195.525 235.211 195.606 235.275 195.707C235.339 195.808 235.372 195.925 235.372 196.044V200.91C235.372 201.053 235.344 201.196 235.288 201.328C235.233 201.461 235.153 201.581 235.051 201.682C234.949 201.784 234.828 201.864 234.695 201.918C234.562 201.973 234.42 202.001 234.277 202L215.528 201.923Z" fill="#C1D8ED"/>
<path d="M181.419 201.923C181.189 201.922 180.961 201.874 180.751 201.781C180.54 201.688 180.351 201.553 180.196 201.384C180.04 201.215 179.92 201.016 179.845 200.798C179.77 200.581 179.74 200.351 179.758 200.122V200.122C179.783 199.804 179.898 199.5 180.09 199.246C180.282 198.991 180.543 198.797 180.841 198.685L190.798 195.353C190.991 195.289 191.196 195.268 191.398 195.29C191.599 195.313 191.794 195.378 191.968 195.483C193.337 196.432 194.975 196.917 196.64 196.867C197.937 196.775 199.182 196.32 200.233 195.556C200.325 195.48 200.437 195.432 200.556 195.417C200.674 195.403 200.795 195.422 200.902 195.473C201.01 195.525 201.102 195.606 201.165 195.707C201.229 195.808 201.263 195.925 201.262 196.044V200.91C201.262 201.053 201.234 201.196 201.179 201.328C201.124 201.461 201.043 201.581 200.941 201.682C200.839 201.783 200.719 201.864 200.586 201.918C200.453 201.973 200.311 202 200.167 202L181.419 201.923Z" fill="#C1D8ED"/>
<path d="M217.291 105.595V132.034C217.291 133.099 217.715 134.12 218.468 134.873C219.222 135.627 220.244 136.05 221.31 136.05H262.981C264.047 136.05 265.069 135.627 265.823 134.873C266.577 134.12 267 133.099 267 132.034V105.595C267 104.53 266.577 103.509 265.823 102.756C265.069 102.003 264.047 101.58 262.981 101.58H251.967V98.7895C251.966 97.7942 251.57 96.8401 250.865 96.1363C250.161 95.4326 249.206 95.0367 248.21 95.0355H236.081C235.085 95.0367 234.13 95.4326 233.425 96.1363C232.721 96.8401 232.325 97.7942 232.324 98.7895V101.58H221.31C220.244 101.58 219.222 102.003 218.468 102.756C217.715 103.509 217.291 104.53 217.291 105.595ZM249.523 101.58H234.768V98.7895C234.768 98.4417 234.907 98.1083 235.153 97.8624C235.399 97.6164 235.733 97.4781 236.081 97.4777H248.21C248.558 97.4781 248.892 97.6164 249.138 97.8624C249.384 98.1083 249.523 98.4417 249.523 98.7895V101.58Z" fill="#0CBC8B"/>
<path d="M161.069 67.3687C159.888 67.645 155.79 67.9466 155.743 69.0155C155.714 69.6565 158.826 69.6773 158.826 69.6773" fill="#E98862"/>
<path d="M158.759 75.2325C163.645 74.0891 167.28 71.7759 166.879 70.0659C166.478 68.3559 162.193 67.8966 157.307 69.04C152.422 70.1835 148.786 72.4967 149.187 74.2067C149.588 75.9167 153.873 76.376 158.759 75.2325Z" fill="#E98862"/>
<path d="M238.296 89.9078C238.296 91.1208 237.655 95.1759 238.686 95.4657C239.304 95.6391 240.034 92.6166 240.034 92.6166" fill="#E98862"/>
<path d="M243.163 89.2713C243.163 89.2713 246.65 93.0248 244.28 97.4776C243.951 98.0951 240.747 98.4577 240.747 97.7011C240.747 94.5263 240.5 92.0362 238.407 92.7973V87.6835" fill="#E98862"/>
<path d="M182.333 58.349L197.503 35.6995L197.592 35.7593C198.896 33.7726 201.134 32.5031 204.833 32.3452C205.089 32.333 205.5 32.3248 206.03 32.3167C206.136 34.5553 220.01 34.5472 220.304 32.2638C224.222 32.2679 227.437 33.4686 229.299 35.3287C230.164 36.185 230.828 37.2232 231.242 38.3679L231.292 38.3459L241.138 60.4977C241.309 60.8825 241.425 61.2896 241.481 61.7069L245.307 90.1288L236.504 91.3116L232.764 63.5194L228.884 54.7904C228.262 56.8771 227.912 59.0351 227.841 61.2112C227.841 69.7627 231.711 73.5928 231.426 77.9805C230.978 84.8754 197.44 83.2473 195.734 79.3277C193.974 75.2901 197.546 72.7991 197.387 59.5872C197.323 57.2685 197.139 54.9548 196.836 52.6552L188.903 64.4995C188.375 65.2884 187.608 65.8875 186.714 66.209L161.882 75.1228L158.88 66.7699L182.333 58.349Z" fill="#367CFF"/>
<path d="M206.031 32.3175C206.137 34.5561 207.355 37.8489 211.115 38.0972C216.126 38.4269 220.012 34.548 220.305 32.2646H220.293C215.36 32.2638 208.907 32.2719 206.031 32.3175Z" fill="#E98862"/>
<path d="M216.85 26.9815C216.835 26.0632 216.867 25.1448 216.947 24.23C215.854 24.0265 211.607 23.2417 210.438 23.0252C210.664 23.8234 210.459 29.8591 209.216 31.536C208.907 32.1378 208.473 32.6676 207.945 33.0909H218.181C217.546 32 216.894 30.1196 216.85 26.9815Z" fill="#E98862"/>
<path opacity="0.15" d="M209.211 31.5417L214.617 27.4088L210.371 27.3649C210.248 28.8172 209.855 30.2338 209.211 31.5417Z" fill="black"/>
<path d="M220.639 20.9071C219.81 27.0222 213.907 28.3307 208.588 27.8741C201.463 27.2904 202.872 11.1048 206.255 7.96012C209.637 4.81547 219.566 6.80703 220.772 12.0657C221.397 14.7855 221.068 18.432 220.639 20.9071Z" fill="#E98862"/>
<path d="M201.271 6.45738C201.267 4.30016 203.966 0.78797 211.1 5.6474C215.013 5.71863 217.283 5.92662 220.161 8.07285C226.488 12.3893 220.99 25.9313 217.184 26.8882C216.795 27.1198 216.7 26.9314 216.565 26.4987C216.14 24.8999 215.836 23.2714 215.655 21.6271C215.423 19.9176 213.885 18.8308 214.071 16.7835C214.136 16.068 215.289 13.4459 211.72 13.4162C203.928 13.936 200.398 12.7328 201.271 6.45738Z" fill="#0F1011"/>
<path d="M213.518 19.7576C213.206 22.9865 218.288 23.4033 218.506 20.1646C218.88 16.8311 213.44 16.5947 213.518 19.7576Z" fill="#E98862"/>
<path d="M214.617 11.8264L216.46 12.5004C215.898 14.0439 216.89 28.3051 211.698 28.5037C204.73 29.3658 203.48 27.2631 203.74 21.7675C214.414 22.9772 213.615 21.45 214.617 11.8264Z" fill="#0F1011"/>
<path d="M209.86 18.2663C209.852 18.4194 209.904 18.5695 210.005 18.6848C210.106 18.8001 210.248 18.8716 210.401 18.8841C210.554 18.8965 210.706 18.8491 210.824 18.7517C210.943 18.6543 211.019 18.5147 211.036 18.3623C211.044 18.2093 210.991 18.0592 210.89 17.9439C210.789 17.8285 210.647 17.7571 210.494 17.7446C210.342 17.7321 210.19 17.7796 210.071 17.877C209.953 17.9743 209.877 18.114 209.86 18.2663V18.2663Z" fill="#0F1011"/>
<path d="M205.203 17.8845C205.192 18.0391 205.243 18.1916 205.344 18.3091C205.446 18.4265 205.589 18.4995 205.744 18.5122C205.898 18.5248 206.051 18.4762 206.17 18.3768C206.289 18.2774 206.364 18.1352 206.379 17.9809C206.39 17.8263 206.339 17.6738 206.238 17.5563C206.137 17.4389 205.993 17.3659 205.839 17.3532C205.684 17.3406 205.531 17.3892 205.412 17.4886C205.293 17.588 205.218 17.7302 205.203 17.8845V17.8845Z" fill="#0F1011"/>
<path d="M204.769 16.676C204.769 16.676 206.334 16.6561 206.335 16.6565C206.407 16.653 206.475 16.6218 206.524 16.5696C206.573 16.5173 206.6 16.448 206.599 16.3762C206.598 16.3044 206.57 16.2358 206.519 16.1848C206.469 16.1337 206.4 16.1042 206.328 16.1025L204.765 16.1221C204.693 16.1253 204.626 16.1561 204.576 16.208C204.527 16.26 204.499 16.3291 204.5 16.4008C204.5 16.4725 204.529 16.5412 204.579 16.5926C204.629 16.6439 204.697 16.6738 204.769 16.676V16.676Z" fill="#0F1011"/>
<path d="M211.722 17.2454C212.845 16.7008 210.492 16.4375 210.245 16.3284C210.174 16.3131 210.1 16.3261 210.039 16.3646C209.977 16.4032 209.933 16.4642 209.916 16.5346C209.899 16.605 209.911 16.6793 209.948 16.7415C209.985 16.8036 210.045 16.8488 210.115 16.8673C210.192 16.8771 211.642 17.2507 211.722 17.2454Z" fill="#0F1011"/>
<g opacity="0.15">
<path opacity="0.15" d="M207.827 21.5856C208.665 21.2087 206.85 20.9217 206.687 20.8192L207.526 18.9505C207.372 17.6814 206.323 20.8049 206.223 20.8635C206.031 21.2758 207.645 21.461 207.827 21.5856Z" fill="black"/>
</g>
<path d="M210.175 22.9593C210.175 22.9593 207.996 23.1888 206.468 22.6556C206.405 24.5271 209.937 24.8096 210.175 22.9593Z" fill="#F8FCFF"/>
<path d="M174.241 35.2049C181.462 35.2049 187.316 29.3557 187.316 22.1403C187.316 14.925 181.462 9.07574 174.241 9.07574C167.019 9.07574 161.165 14.925 161.165 22.1403C161.165 29.3557 167.019 35.2049 174.241 35.2049Z" fill="#8DDBE0"/>
<path d="M172.312 27.4971C172.088 27.4971 171.872 27.4113 171.708 27.2574L167.434 23.2279C167.35 23.1485 167.283 23.0534 167.235 22.948C167.188 22.8425 167.162 22.7288 167.158 22.6133C167.155 22.4978 167.175 22.3827 167.216 22.2747C167.257 22.1667 167.319 22.0679 167.398 21.9838C167.478 21.8998 167.573 21.8321 167.678 21.7848C167.784 21.7376 167.898 21.7115 168.013 21.7081C168.129 21.7048 168.244 21.7242 168.352 21.7654C168.46 21.8065 168.559 21.8685 168.643 21.9478L172.264 25.3615L179.793 17.0717C179.951 16.9057 180.169 16.8083 180.398 16.8002C180.628 16.7921 180.852 16.8739 181.022 17.0282C181.192 17.1825 181.295 17.3971 181.309 17.6261C181.323 17.8552 181.246 18.0807 181.096 18.2545L172.964 27.2089C172.885 27.2956 172.79 27.3656 172.684 27.4151C172.577 27.4646 172.463 27.4925 172.345 27.4971H172.312Z" fill="white"/>
</g>
<defs>
<clipPath id="clip0_402_257">
<rect width="267" height="202" fill="white"/>
</clipPath>
</defs>
</svg>
