<svg width="145" height="129" viewBox="0 0 145 129" fill="none" xmlns="http://www.w3.org/2000/svg">
<mask id="mask0_207_51" style="mask-type:alpha" maskUnits="userSpaceOnUse" x="-54" y="32" width="167" height="167">
<circle cx="29.0509" cy="115.051" r="83" transform="rotate(-56.4323 29.0509 115.051)" fill="#C4C4C4"/>
</mask>
<g mask="url(#mask0_207_51)">
<line x1="-86.3473" y1="170.49" x2="34.7426" y2="-11.988" stroke="#0084C8"/>
<line x1="-94.6796" y1="164.961" x2="26.4102" y2="-17.5172" stroke="#0084C8"/>
<line x1="-78.015" y1="176.019" x2="43.0749" y2="-6.45874" stroke="#0084C8"/>
<line x1="-69.6826" y1="181.548" x2="51.4072" y2="-0.929563" stroke="#0084C8"/>
<line x1="-61.3503" y1="187.078" x2="59.7396" y2="4.59973" stroke="#0084C8"/>
<line x1="-53.018" y1="192.607" x2="68.0719" y2="10.1289" stroke="#0084C8"/>
<line x1="-44.6857" y1="198.136" x2="76.4042" y2="15.6581" stroke="#0084C8"/>
<line x1="-36.3533" y1="203.665" x2="84.7365" y2="21.1874" stroke="#0084C8"/>
<line x1="-28.021" y1="209.195" x2="93.0689" y2="26.7166" stroke="#0084C8"/>
<line x1="-19.6887" y1="214.724" x2="101.401" y2="32.2457" stroke="#0084C8"/>
<line x1="-11.3563" y1="220.253" x2="109.734" y2="37.775" stroke="#0084C8"/>
<line x1="-3.02399" y1="225.782" x2="118.066" y2="43.3042" stroke="#0084C8"/>
<line x1="5.30833" y1="231.311" x2="126.398" y2="48.8334" stroke="#0084C8"/>
<line x1="13.6407" y1="236.841" x2="134.731" y2="54.3627" stroke="#0084C8"/>
<line x1="21.973" y1="242.37" x2="143.063" y2="59.8918" stroke="#0084C8"/>
<line x1="30.3053" y1="247.899" x2="151.395" y2="65.421" stroke="#0084C8"/>
</g>
</svg>
